<?xml version="1.0" encoding="UTF-8" standalone="no"?><svg xmlns="http://www.w3.org/2000/svg" xmlns:xlink="http://www.w3.org/1999/xlink" clip-rule="evenodd" stroke-miterlimit="10" viewBox="0 0 720 540"><desc>SVG generated by Keynote</desc><defs></defs><g transform="matrix(1.00, 0.00, -0.00, -1.00, 0.0, 540.0)"><path d="M 0.0 540.0 L 720.0 540.0 L 720.0 0.0 L 0.0 0.0 Z M 0.0 540.0 " fill="#FFFFFF"></path><text xml:space="preserve" font-family="Calibri,Calibri" font-size="12.0" fill="#878787" transform="matrix(1.00, 0.00, -0.00, -1.00, 668.2, 21.3)">1</text><text xml:space="preserve" font-family="Calibri,Calibri" font-size="12.0" fill="#878787" transform="matrix(1.00, 0.00, -0.00, -1.00, 674.3, 21.3)">3</text><g><clipPath id="clip0x7fec14b17ae0"><path d="M 0.0 228.6 L 720.0 228.6 L 720.0 311.4 L 0.0 311.4 Z M 0.0 228.6 "></path></clipPath><g clip-path="url(#clip0x7fec14b17ae0)"><text xml:space="preserve" font-family="Pacifico-Regular,Pacifico" font-size="50.0" fill="#3F6797" transform="matrix(1.00, 0.00, -0.00, -1.00, 29.0, 246.1)">W</text><text xml:space="preserve" font-family="Pacifico-Regular,Pacifico" font-size="50.0" fill="#3F6797" transform="matrix(1.00, 0.00, -0.00, -1.00, 87.6, 246.1)">h</text><text xml:space="preserve" font-family="Pacifico-Regular,Pacifico" font-size="50.0" fill="#3F6797" transform="matrix(1.00, 0.00, -0.00, -1.00, 112.6, 246.1)">a</text><text xml:space="preserve" font-family="Pacifico-Regular,Pacifico" font-size="50.0" fill="#3F6797" transform="matrix(1.00, 0.00, -0.00, -1.00, 135.3, 246.1)">t</text><text xml:space="preserve" font-family="Pacifico-Regular,Pacifico" font-size="50.0" fill="#3F6797" transform="matrix(1.00, 0.00, -0.00, -1.00, 154.9, 246.1)"> </text><text xml:space="preserve" font-family="Pacifico-Regular,Pacifico" font-size="50.0" fill="#3F6797" transform="matrix(1.00, 0.00, -0.00, -1.00, 168.2, 246.1)">d</text><text xml:space="preserve" font-family="Pacifico-Regular,Pacifico" font-size="50.0" fill="#3F6797" transform="matrix(1.00, 0.00, -0.00, -1.00, 194.4, 246.1)">o</text><text xml:space="preserve" font-family="Pacifico-Regular,Pacifico" font-size="50.0" fill="#3F6797" transform="matrix(1.00, 0.00, -0.00, -1.00, 215.7, 246.1)">e</text><text xml:space="preserve" font-family="Pacifico-Regular,Pacifico" font-size="50.0" fill="#3F6797" transform="matrix(1.00, 0.00, -0.00, -1.00, 234.9, 246.1)">s</text><text xml:space="preserve" font-family="Pacifico-Regular,Pacifico" font-size="50.0" fill="#3F6797" transform="matrix(1.00, 0.00, -0.00, -1.00, 256.1, 246.1)"> </text><text xml:space="preserve" font-family="Pacifico-Regular,Pacifico" font-size="50.0" fill="#3F6797" transform="matrix(1.00, 0.00, -0.00, -1.00, 269.4, 246.1)">i</text><text xml:space="preserve" font-family="Pacifico-Regular,Pacifico" font-size="50.0" fill="#3F6797" transform="matrix(1.00, 0.00, -0.00, -1.00, 282.5, 246.1)">t</text><text xml:space="preserve" font-family="Pacifico-Regular,Pacifico" font-size="50.0" fill="#3F6797" transform="matrix(1.00, 0.00, -0.00, -1.00, 302.1, 246.1)"> </text><text xml:space="preserve" font-family="Pacifico-Regular,Pacifico" font-size="50.0" fill="#3F6797" transform="matrix(1.00, 0.00, -0.00, -1.00, 315.4, 246.1)">l</text><text xml:space="preserve" font-family="Pacifico-Regular,Pacifico" font-size="50.0" fill="#3F6797" transform="matrix(1.00, 0.00, -0.00, -1.00, 329.4, 246.1)">o</text><text xml:space="preserve" font-family="Pacifico-Regular,Pacifico" font-size="50.0" fill="#3F6797" transform="matrix(1.00, 0.00, -0.00, -1.00, 350.8, 246.1)">o</text><text xml:space="preserve" font-family="Pacifico-Regular,Pacifico" font-size="50.0" fill="#3F6797" transform="matrix(1.00, 0.00, -0.00, -1.00, 372.1, 246.1)">k</text><text xml:space="preserve" font-family="Pacifico-Regular,Pacifico" font-size="50.0" fill="#3F6797" transform="matrix(1.00, 0.00, -0.00, -1.00, 396.3, 246.1)"> </text><text xml:space="preserve" font-family="Pacifico-Regular,Pacifico" font-size="50.0" fill="#3F6797" transform="matrix(1.00, 0.00, -0.00, -1.00, 409.6, 246.1)">l</text><text xml:space="preserve" font-family="Pacifico-Regular,Pacifico" font-size="50.0" fill="#3F6797" transform="matrix(1.00, 0.00, -0.00, -1.00, 423.6, 246.1)">i</text><text xml:space="preserve" font-family="Pacifico-Regular,Pacifico" font-size="50.0" fill="#3F6797" transform="matrix(1.00, 0.00, -0.00, -1.00, 436.7, 246.1)">k</text><text xml:space="preserve" font-family="Pacifico-Regular,Pacifico" font-size="50.0" fill="#3F6797" transform="matrix(1.00, 0.00, -0.00, -1.00, 460.9, 246.1)">e</text><text xml:space="preserve" font-family="Pacifico-Regular,Pacifico" font-size="50.0" fill="#3F6797" transform="matrix(1.00, 0.00, -0.00, -1.00, 480.1, 246.1)"> </text><text xml:space="preserve" font-family="Pacifico-Regular,Pacifico" font-size="50.0" fill="#3F6797" transform="matrix(1.00, 0.00, -0.00, -1.00, 493.5, 246.1)">i</text><text xml:space="preserve" font-family="Pacifico-Regular,Pacifico" font-size="50.0" fill="#3F6797" transform="matrix(1.00, 0.00, -0.00, -1.00, 506.6, 246.1)">n</text><text xml:space="preserve" font-family="Pacifico-Regular,Pacifico" font-size="50.0" fill="#3F6797" transform="matrix(1.00, 0.00, -0.00, -1.00, 529.2, 246.1)"> </text><text xml:space="preserve" font-family="Pacifico-Regular,Pacifico" font-size="50.0" fill="#3F6797" transform="matrix(1.00, 0.00, -0.00, -1.00, 542.5, 246.1)">a</text><text xml:space="preserve" font-family="Pacifico-Regular,Pacifico" font-size="50.0" fill="#3F6797" transform="matrix(1.00, 0.00, -0.00, -1.00, 565.2, 246.1)">c</text><text xml:space="preserve" font-family="Pacifico-Regular,Pacifico" font-size="50.0" fill="#3F6797" transform="matrix(1.00, 0.00, -0.00, -1.00, 583.2, 246.1)">t</text><text xml:space="preserve" font-family="Pacifico-Regular,Pacifico" font-size="50.0" fill="#3F6797" transform="matrix(1.00, 0.00, -0.00, -1.00, 602.8, 246.1)">i</text><text xml:space="preserve" font-family="Pacifico-Regular,Pacifico" font-size="50.0" fill="#3F6797" transform="matrix(1.00, 0.00, -0.00, -1.00, 615.9, 246.1)">o</text><text xml:space="preserve" font-family="Pacifico-Regular,Pacifico" font-size="50.0" fill="#3F6797" transform="matrix(1.00, 0.00, -0.00, -1.00, 637.2, 246.1)">n</text><text xml:space="preserve" font-family="Pacifico-Regular,Pacifico" font-size="50.0" fill="#3F6797" transform="matrix(1.00, 0.00, -0.00, -1.00, 659.8, 246.1)">?</text></g></g></g></svg>