<?xml version="1.0" encoding="UTF-8" standalone="no"?><svg xmlns="http://www.w3.org/2000/svg" xmlns:xlink="http://www.w3.org/1999/xlink" clip-rule="evenodd" stroke-miterlimit="10" viewBox="0 0 720 540"><desc>SVG generated by Keynote</desc><defs></defs><g transform="matrix(1.00, 0.00, -0.00, -1.00, 0.0, 540.0)"><path d="M 0.0 540.0 L 720.0 540.0 L 720.0 0.0 L 0.0 0.0 Z M 0.0 540.0 " fill="#FFFFFF"></path><text xml:space="preserve" font-family="OpenSans,Open Sans" font-size="44.0" fill="#3F6797" transform="matrix(1.00, 0.00, -0.00, -1.00, 56.0, 437.7)">W</text><text xml:space="preserve" font-family="OpenSans,Open Sans" font-size="44.0" fill="#3F6797" transform="matrix(1.00, 0.00, -0.00, -1.00, 96.8, 437.7)">h</text><text xml:space="preserve" font-family="OpenSans,Open Sans" font-size="44.0" fill="#3F6797" transform="matrix(1.00, 0.00, -0.00, -1.00, 123.8, 437.7)">a</text><text xml:space="preserve" font-family="OpenSans,Open Sans" font-size="44.0" fill="#3F6797" transform="matrix(1.00, 0.00, -0.00, -1.00, 148.2, 437.7)">t</text><text xml:space="preserve" font-family="OpenSans,Open Sans" font-size="44.0" fill="#3F6797" transform="matrix(1.00, 0.00, -0.00, -1.00, 163.8, 437.7)"> </text><text xml:space="preserve" font-family="OpenSans,Open Sans" font-size="44.0" fill="#3F6797" transform="matrix(1.00, 0.00, -0.00, -1.00, 175.2, 437.7)">i</text><text xml:space="preserve" font-family="OpenSans,Open Sans" font-size="44.0" fill="#3F6797" transform="matrix(1.00, 0.00, -0.00, -1.00, 186.3, 437.7)">s</text><text xml:space="preserve" font-family="OpenSans,Open Sans" font-size="44.0" fill="#3F6797" transform="matrix(1.00, 0.00, -0.00, -1.00, 207.3, 437.7)"> </text><text xml:space="preserve" font-family="OpenSans,Open Sans" font-size="44.0" fill="#3F6797" transform="matrix(1.00, 0.00, -0.00, -1.00, 218.7, 437.7)">i</text><text xml:space="preserve" font-family="OpenSans,Open Sans" font-size="44.0" fill="#3F6797" transform="matrix(1.00, 0.00, -0.00, -1.00, 229.9, 437.7)">t</text><text xml:space="preserve" font-family="OpenSans,Open Sans" font-size="44.0" fill="#3F6797" transform="matrix(1.00, 0.00, -0.00, -1.00, 245.4, 437.7)">?</text><text xml:space="preserve" font-family="OpenSans-Light,Open Sans" font-size="28.8" fill="#000000" transform="matrix(1.00, 0.00, -0.00, -1.00, 32.0, 367.3)">A</text><text xml:space="preserve" font-family="OpenSans-Light,Open Sans" font-size="28.8" fill="#000000" transform="matrix(1.00, 0.00, -0.00, -1.00, 49.3, 367.3)"> </text><text xml:space="preserve" font-family="OpenSans-Light,Open Sans" font-size="28.8" fill="#000000" transform="matrix(1.00, 0.00, -0.00, -1.00, 56.7, 367.3)">c</text><text xml:space="preserve" font-family="OpenSans-Light,Open Sans" font-size="28.8" fill="#000000" transform="matrix(1.00, 0.00, -0.00, -1.00, 70.4, 367.3)">o</text><text xml:space="preserve" font-family="OpenSans-Light,Open Sans" font-size="28.8" fill="#000000" transform="matrix(1.00, 0.00, -0.00, -1.00, 87.3, 367.3)">l</text><text xml:space="preserve" font-family="OpenSans-Light,Open Sans" font-size="28.8" fill="#000000" transform="matrix(1.00, 0.00, -0.00, -1.00, 93.8, 367.3)">l</text><text xml:space="preserve" font-family="OpenSans-Light,Open Sans" font-size="28.8" fill="#000000" transform="matrix(1.00, 0.00, -0.00, -1.00, 100.3, 367.3)">a</text><text xml:space="preserve" font-family="OpenSans-Light,Open Sans" font-size="28.8" fill="#000000" transform="matrix(1.00, 0.00, -0.00, -1.00, 115.6, 367.3)">b</text><text xml:space="preserve" font-family="OpenSans-Light,Open Sans" font-size="28.8" fill="#000000" transform="matrix(1.00, 0.00, -0.00, -1.00, 132.7, 367.3)">o</text><text xml:space="preserve" font-family="OpenSans-Light,Open Sans" font-size="28.8" fill="#000000" transform="matrix(1.00, 0.00, -0.00, -1.00, 149.6, 367.3)">r</text><text xml:space="preserve" font-family="OpenSans-Light,Open Sans" font-size="28.8" fill="#000000" transform="matrix(1.00, 0.00, -0.00, -1.00, 160.2, 367.3)">a</text><text xml:space="preserve" font-family="OpenSans-Light,Open Sans" font-size="28.8" fill="#000000" transform="matrix(1.00, 0.00, -0.00, -1.00, 175.5, 367.3)">t</text><text xml:space="preserve" font-family="OpenSans-Light,Open Sans" font-size="28.8" fill="#000000" transform="matrix(1.00, 0.00, -0.00, -1.00, 185.1, 367.3)">i</text><text xml:space="preserve" font-family="OpenSans-Light,Open Sans" font-size="28.8" fill="#000000" transform="matrix(1.00, 0.00, -0.00, -1.00, 191.6, 367.3)">v</text><text xml:space="preserve" font-family="OpenSans-Light,Open Sans" font-size="28.8" fill="#000000" transform="matrix(1.00, 0.00, -0.00, -1.00, 204.9, 367.3)">e</text><text xml:space="preserve" font-family="OpenSans-Light,Open Sans" font-size="28.8" fill="#000000" transform="matrix(1.00, 0.00, -0.00, -1.00, 220.7, 367.3)"> </text><text xml:space="preserve" font-family="OpenSans-Light,Open Sans" font-size="28.8" fill="#000000" transform="matrix(1.00, 0.00, -0.00, -1.00, 32.0, 328.3)">e</text><text xml:space="preserve" font-family="OpenSans-Light,Open Sans" font-size="28.8" fill="#000000" transform="matrix(1.00, 0.00, -0.00, -1.00, 47.8, 328.3)">n</text><text xml:space="preserve" font-family="OpenSans-Light,Open Sans" font-size="28.8" fill="#000000" transform="matrix(1.00, 0.00, -0.00, -1.00, 64.8, 328.3)">v</text><text xml:space="preserve" font-family="OpenSans-Light,Open Sans" font-size="28.8" fill="#000000" transform="matrix(1.00, 0.00, -0.00, -1.00, 78.0, 328.3)">i</text><text xml:space="preserve" font-family="OpenSans-Light,Open Sans" font-size="28.8" fill="#000000" transform="matrix(1.00, 0.00, -0.00, -1.00, 84.5, 328.3)">r</text><text xml:space="preserve" font-family="OpenSans-Light,Open Sans" font-size="28.8" fill="#000000" transform="matrix(1.00, 0.00, -0.00, -1.00, 95.1, 328.3)">o</text><text xml:space="preserve" font-family="OpenSans-Light,Open Sans" font-size="28.8" fill="#000000" transform="matrix(1.00, 0.00, -0.00, -1.00, 112.0, 328.3)">n</text><text xml:space="preserve" font-family="OpenSans-Light,Open Sans" font-size="28.8" fill="#000000" transform="matrix(1.00, 0.00, -0.00, -1.00, 129.0, 328.3)">m</text><text xml:space="preserve" font-family="OpenSans-Light,Open Sans" font-size="28.8" fill="#000000" transform="matrix(1.00, 0.00, -0.00, -1.00, 154.4, 328.3)">e</text><text xml:space="preserve" font-family="OpenSans-Light,Open Sans" font-size="28.8" fill="#000000" transform="matrix(1.00, 0.00, -0.00, -1.00, 170.2, 328.3)">n</text><text xml:space="preserve" font-family="OpenSans-Light,Open Sans" font-size="28.8" fill="#000000" transform="matrix(1.00, 0.00, -0.00, -1.00, 187.2, 328.3)">t</text><text xml:space="preserve" font-family="OpenSans-Light,Open Sans" font-size="28.8" fill="#000000" transform="matrix(1.00, 0.00, -0.00, -1.00, 196.8, 328.3)"> </text><text xml:space="preserve" font-family="OpenSans-Light,Open Sans" font-size="28.8" fill="#000000" transform="matrix(1.00, 0.00, -0.00, -1.00, 204.3, 328.3)">w</text><text xml:space="preserve" font-family="OpenSans-Light,Open Sans" font-size="28.8" fill="#000000" transform="matrix(1.00, 0.00, -0.00, -1.00, 225.1, 328.3)">h</text><text xml:space="preserve" font-family="OpenSans-Light,Open Sans" font-size="28.8" fill="#000000" transform="matrix(1.00, 0.00, -0.00, -1.00, 242.1, 328.3)">e</text><text xml:space="preserve" font-family="OpenSans-Light,Open Sans" font-size="28.8" fill="#000000" transform="matrix(1.00, 0.00, -0.00, -1.00, 257.9, 328.3)">r</text><text xml:space="preserve" font-family="OpenSans-Light,Open Sans" font-size="28.8" fill="#000000" transform="matrix(1.00, 0.00, -0.00, -1.00, 268.5, 328.3)">e</text><text xml:space="preserve" font-family="OpenSans-Light,Open Sans" font-size="28.8" fill="#000000" transform="matrix(1.00, 0.00, -0.00, -1.00, 284.3, 328.3)"> </text><text xml:space="preserve" font-family="OpenSans-Light,Open Sans" font-size="28.8" fill="#000000" transform="matrix(1.00, 0.00, -0.00, -1.00, 32.0, 289.3)">u</text><text xml:space="preserve" font-family="OpenSans-Light,Open Sans" font-size="28.8" fill="#000000" transform="matrix(1.00, 0.00, -0.00, -1.00, 49.0, 289.3)">s</text><text xml:space="preserve" font-family="OpenSans-Light,Open Sans" font-size="28.8" fill="#000000" transform="matrix(1.00, 0.00, -0.00, -1.00, 62.4, 289.3)">e</text><text xml:space="preserve" font-family="OpenSans-Light,Open Sans" font-size="28.8" fill="#000000" transform="matrix(1.00, 0.00, -0.00, -1.00, 78.2, 289.3)">r</text><text xml:space="preserve" font-family="OpenSans-Light,Open Sans" font-size="28.8" fill="#000000" transform="matrix(1.00, 0.00, -0.00, -1.00, 89.4, 289.3)">s</text><text xml:space="preserve" font-family="OpenSans-Light,Open Sans" font-size="28.8" fill="#000000" transform="matrix(1.00, 0.00, -0.00, -1.00, 102.8, 289.3)"> </text><text xml:space="preserve" font-family="OpenSans-Light,Open Sans" font-size="28.8" fill="#000000" transform="matrix(1.00, 0.00, -0.00, -1.00, 110.3, 289.3)">i</text><text xml:space="preserve" font-family="OpenSans-Light,Open Sans" font-size="28.8" fill="#000000" transform="matrix(1.00, 0.00, -0.00, -1.00, 116.8, 289.3)">n</text><text xml:space="preserve" font-family="OpenSans-Light,Open Sans" font-size="28.8" fill="#000000" transform="matrix(1.00, 0.00, -0.00, -1.00, 133.8, 289.3)">t</text><text xml:space="preserve" font-family="OpenSans-Light,Open Sans" font-size="28.8" fill="#000000" transform="matrix(1.00, 0.00, -0.00, -1.00, 143.4, 289.3)">e</text><text xml:space="preserve" font-family="OpenSans-Light,Open Sans" font-size="28.8" fill="#000000" transform="matrix(1.00, 0.00, -0.00, -1.00, 159.2, 289.3)">r</text><text xml:space="preserve" font-family="OpenSans-Light,Open Sans" font-size="28.8" fill="#000000" transform="matrix(1.00, 0.00, -0.00, -1.00, 169.8, 289.3)">a</text><text xml:space="preserve" font-family="OpenSans-Light,Open Sans" font-size="28.8" fill="#000000" transform="matrix(1.00, 0.00, -0.00, -1.00, 185.1, 289.3)">c</text><text xml:space="preserve" font-family="OpenSans-Light,Open Sans" font-size="28.8" fill="#000000" transform="matrix(1.00, 0.00, -0.00, -1.00, 198.8, 289.3)">t</text><text xml:space="preserve" font-family="OpenSans-Light,Open Sans" font-size="28.8" fill="#000000" transform="matrix(1.00, 0.00, -0.00, -1.00, 208.4, 289.3)"> </text><text xml:space="preserve" font-family="OpenSans-Light,Open Sans" font-size="28.8" fill="#000000" transform="matrix(1.00, 0.00, -0.00, -1.00, 215.9, 289.3)">o</text><text xml:space="preserve" font-family="OpenSans-Light,Open Sans" font-size="28.8" fill="#000000" transform="matrix(1.00, 0.00, -0.00, -1.00, 232.8, 289.3)">n</text><text xml:space="preserve" font-family="OpenSans-Light,Open Sans" font-size="28.8" fill="#000000" transform="matrix(1.00, 0.00, -0.00, -1.00, 249.8, 289.3)"> </text><text xml:space="preserve" font-family="OpenSans-Light,Open Sans" font-size="28.8" fill="#000000" transform="matrix(1.00, 0.00, -0.00, -1.00, 257.2, 289.3)">a</text><text xml:space="preserve" font-family="OpenSans-Light,Open Sans" font-size="28.8" fill="#000000" transform="matrix(1.00, 0.00, -0.00, -1.00, 272.5, 289.3)"> </text><text xml:space="preserve" font-family="OpenSans-Light,Open Sans" font-size="28.8" fill="#000000" transform="matrix(1.00, 0.00, -0.00, -1.00, 32.0, 250.3)">v</text><text xml:space="preserve" font-family="OpenSans-Light,Open Sans" font-size="28.8" fill="#000000" transform="matrix(1.00, 0.00, -0.00, -1.00, 45.2, 250.3)">i</text><text xml:space="preserve" font-family="OpenSans-Light,Open Sans" font-size="28.8" fill="#000000" transform="matrix(1.00, 0.00, -0.00, -1.00, 51.7, 250.3)">r</text><text xml:space="preserve" font-family="OpenSans-Light,Open Sans" font-size="28.8" fill="#000000" transform="matrix(1.00, 0.00, -0.00, -1.00, 62.9, 250.3)">t</text><text xml:space="preserve" font-family="OpenSans-Light,Open Sans" font-size="28.8" fill="#000000" transform="matrix(1.00, 0.00, -0.00, -1.00, 72.6, 250.3)">u</text><text xml:space="preserve" font-family="OpenSans-Light,Open Sans" font-size="28.8" fill="#000000" transform="matrix(1.00, 0.00, -0.00, -1.00, 89.5, 250.3)">a</text><text xml:space="preserve" font-family="OpenSans-Light,Open Sans" font-size="28.8" fill="#000000" transform="matrix(1.00, 0.00, -0.00, -1.00, 104.8, 250.3)">l</text><text xml:space="preserve" font-family="OpenSans-Light,Open Sans" font-size="28.8" fill="#000000" transform="matrix(1.00, 0.00, -0.00, -1.00, 111.3, 250.3)"> </text><text xml:space="preserve" font-family="OpenSans-Light,Open Sans" font-size="28.8" fill="#000000" transform="matrix(1.00, 0.00, -0.00, -1.00, 118.8, 250.3)">w</text><text xml:space="preserve" font-family="OpenSans-Light,Open Sans" font-size="28.8" fill="#000000" transform="matrix(1.00, 0.00, -0.00, -1.00, 139.6, 250.3)">h</text><text xml:space="preserve" font-family="OpenSans-Light,Open Sans" font-size="28.8" fill="#000000" transform="matrix(1.00, 0.00, -0.00, -1.00, 156.6, 250.3)">i</text><text xml:space="preserve" font-family="OpenSans-Light,Open Sans" font-size="28.8" fill="#000000" transform="matrix(1.00, 0.00, -0.00, -1.00, 163.1, 250.3)">t</text><text xml:space="preserve" font-family="OpenSans-Light,Open Sans" font-size="28.8" fill="#000000" transform="matrix(1.00, 0.00, -0.00, -1.00, 172.8, 250.3)">e</text><text xml:space="preserve" font-family="OpenSans-Light,Open Sans" font-size="28.8" fill="#000000" transform="matrix(1.00, 0.00, -0.00, -1.00, 188.6, 250.3)">b</text><text xml:space="preserve" font-family="OpenSans-Light,Open Sans" font-size="28.8" fill="#000000" transform="matrix(1.00, 0.00, -0.00, -1.00, 205.7, 250.3)">o</text><text xml:space="preserve" font-family="OpenSans-Light,Open Sans" font-size="28.8" fill="#000000" transform="matrix(1.00, 0.00, -0.00, -1.00, 222.6, 250.3)">a</text><text xml:space="preserve" font-family="OpenSans-Light,Open Sans" font-size="28.8" fill="#000000" transform="matrix(1.00, 0.00, -0.00, -1.00, 237.8, 250.3)">r</text><text xml:space="preserve" font-family="OpenSans-Light,Open Sans" font-size="28.8" fill="#000000" transform="matrix(1.00, 0.00, -0.00, -1.00, 248.5, 250.3)">d</text><text xml:space="preserve" font-family="OpenSans-Light,Open Sans" font-size="28.8" fill="#000000" transform="matrix(1.00, 0.00, -0.00, -1.00, 265.6, 250.3)">,</text><text xml:space="preserve" font-family="OpenSans-Light,Open Sans" font-size="28.8" fill="#000000" transform="matrix(1.00, 0.00, -0.00, -1.00, 271.8, 250.3)"> </text><text xml:space="preserve" font-family="OpenSans-Light,Open Sans" font-size="28.8" fill="#000000" transform="matrix(1.00, 0.00, -0.00, -1.00, 32.0, 211.3)">o</text><text xml:space="preserve" font-family="OpenSans-Light,Open Sans" font-size="28.8" fill="#000000" transform="matrix(1.00, 0.00, -0.00, -1.00, 48.3, 211.3)">v</text><text xml:space="preserve" font-family="OpenSans-Light,Open Sans" font-size="28.8" fill="#000000" transform="matrix(1.00, 0.00, -0.00, -1.00, 61.5, 211.3)">e</text><text xml:space="preserve" font-family="OpenSans-Light,Open Sans" font-size="28.8" fill="#000000" transform="matrix(1.00, 0.00, -0.00, -1.00, 77.3, 211.3)">r</text><text xml:space="preserve" font-family="OpenSans-Light,Open Sans" font-size="28.8" fill="#000000" transform="matrix(1.00, 0.00, -0.00, -1.00, 88.5, 211.3)"> </text><text xml:space="preserve" font-family="OpenSans-Light,Open Sans" font-size="28.8" fill="#000000" transform="matrix(1.00, 0.00, -0.00, -1.00, 96.0, 211.3)">a</text><text xml:space="preserve" font-family="OpenSans-Light,Open Sans" font-size="28.8" fill="#000000" transform="matrix(1.00, 0.00, -0.00, -1.00, 111.2, 211.3)">n</text><text xml:space="preserve" font-family="OpenSans-Light,Open Sans" font-size="28.8" fill="#000000" transform="matrix(1.00, 0.00, -0.00, -1.00, 128.2, 211.3)"> </text><text xml:space="preserve" font-family="OpenSans-Light,Open Sans" font-size="28.8" fill="#000000" transform="matrix(1.00, 0.00, -0.00, -1.00, 135.7, 211.3)">e</text><text xml:space="preserve" font-family="OpenSans-Light,Open Sans" font-size="28.8" fill="#000000" transform="matrix(1.00, 0.00, -0.00, -1.00, 151.5, 211.3)">n</text><text xml:space="preserve" font-family="OpenSans-Light,Open Sans" font-size="28.8" fill="#000000" transform="matrix(1.00, 0.00, -0.00, -1.00, 168.5, 211.3)">c</text><text xml:space="preserve" font-family="OpenSans-Light,Open Sans" font-size="28.8" fill="#000000" transform="matrix(1.00, 0.00, -0.00, -1.00, 182.2, 211.3)">r</text><text xml:space="preserve" font-family="OpenSans-Light,Open Sans" font-size="28.8" fill="#000000" transform="matrix(1.00, 0.00, -0.00, -1.00, 193.4, 211.3)">y</text><text xml:space="preserve" font-family="OpenSans-Light,Open Sans" font-size="28.8" fill="#000000" transform="matrix(1.00, 0.00, -0.00, -1.00, 206.6, 211.3)">p</text><text xml:space="preserve" font-family="OpenSans-Light,Open Sans" font-size="28.8" fill="#000000" transform="matrix(1.00, 0.00, -0.00, -1.00, 223.7, 211.3)">t</text><text xml:space="preserve" font-family="OpenSans-Light,Open Sans" font-size="28.8" fill="#000000" transform="matrix(1.00, 0.00, -0.00, -1.00, 233.4, 211.3)">e</text><text xml:space="preserve" font-family="OpenSans-Light,Open Sans" font-size="28.8" fill="#000000" transform="matrix(1.00, 0.00, -0.00, -1.00, 249.2, 211.3)">d</text><text xml:space="preserve" font-family="OpenSans-Light,Open Sans" font-size="28.8" fill="#000000" transform="matrix(1.00, 0.00, -0.00, -1.00, 266.3, 211.3)"> </text><text xml:space="preserve" font-family="OpenSans-Light,Open Sans" font-size="28.8" fill="#000000" transform="matrix(1.00, 0.00, -0.00, -1.00, 32.0, 172.3)">i</text><text xml:space="preserve" font-family="OpenSans-Light,Open Sans" font-size="28.8" fill="#000000" transform="matrix(1.00, 0.00, -0.00, -1.00, 38.5, 172.3)">n</text><text xml:space="preserve" font-family="OpenSans-Light,Open Sans" font-size="28.8" fill="#000000" transform="matrix(1.00, 0.00, -0.00, -1.00, 55.5, 172.3)">t</text><text xml:space="preserve" font-family="OpenSans-Light,Open Sans" font-size="28.8" fill="#000000" transform="matrix(1.00, 0.00, -0.00, -1.00, 65.1, 172.3)">e</text><text xml:space="preserve" font-family="OpenSans-Light,Open Sans" font-size="28.8" fill="#000000" transform="matrix(1.00, 0.00, -0.00, -1.00, 80.9, 172.3)">r</text><text xml:space="preserve" font-family="OpenSans-Light,Open Sans" font-size="28.8" fill="#000000" transform="matrix(1.00, 0.00, -0.00, -1.00, 92.1, 172.3)">n</text><text xml:space="preserve" font-family="OpenSans-Light,Open Sans" font-size="28.8" fill="#000000" transform="matrix(1.00, 0.00, -0.00, -1.00, 109.1, 172.3)">e</text><text xml:space="preserve" font-family="OpenSans-Light,Open Sans" font-size="28.8" fill="#000000" transform="matrix(1.00, 0.00, -0.00, -1.00, 124.9, 172.3)">t</text><text xml:space="preserve" font-family="OpenSans-Light,Open Sans" font-size="28.8" fill="#000000" transform="matrix(1.00, 0.00, -0.00, -1.00, 134.6, 172.3)"> </text><text xml:space="preserve" font-family="OpenSans-Light,Open Sans" font-size="28.8" fill="#000000" transform="matrix(1.00, 0.00, -0.00, -1.00, 142.0, 172.3)">c</text><text xml:space="preserve" font-family="OpenSans-Light,Open Sans" font-size="28.8" fill="#000000" transform="matrix(1.00, 0.00, -0.00, -1.00, 155.7, 172.3)">o</text><text xml:space="preserve" font-family="OpenSans-Light,Open Sans" font-size="28.8" fill="#000000" transform="matrix(1.00, 0.00, -0.00, -1.00, 172.6, 172.3)">n</text><text xml:space="preserve" font-family="OpenSans-Light,Open Sans" font-size="28.8" fill="#000000" transform="matrix(1.00, 0.00, -0.00, -1.00, 189.6, 172.3)">n</text><text xml:space="preserve" font-family="OpenSans-Light,Open Sans" font-size="28.8" fill="#000000" transform="matrix(1.00, 0.00, -0.00, -1.00, 206.6, 172.3)">e</text><text xml:space="preserve" font-family="OpenSans-Light,Open Sans" font-size="28.8" fill="#000000" transform="matrix(1.00, 0.00, -0.00, -1.00, 222.4, 172.3)">c</text><text xml:space="preserve" font-family="OpenSans-Light,Open Sans" font-size="28.8" fill="#000000" transform="matrix(1.00, 0.00, -0.00, -1.00, 236.0, 172.3)">t</text><text xml:space="preserve" font-family="OpenSans-Light,Open Sans" font-size="28.8" fill="#000000" transform="matrix(1.00, 0.00, -0.00, -1.00, 245.7, 172.3)">i</text><text xml:space="preserve" font-family="OpenSans-Light,Open Sans" font-size="28.8" fill="#000000" transform="matrix(1.00, 0.00, -0.00, -1.00, 252.2, 172.3)">o</text><text xml:space="preserve" font-family="OpenSans-Light,Open Sans" font-size="28.8" fill="#000000" transform="matrix(1.00, 0.00, -0.00, -1.00, 269.1, 172.3)">n</text><text xml:space="preserve" font-family="OpenSans-Light,Open Sans" font-size="28.8" fill="#000000" transform="matrix(1.00, 0.00, -0.00, -1.00, 286.1, 172.3)"> </text><text xml:space="preserve" font-family="OpenSans-Light,Open Sans" font-size="28.8" fill="#000000" transform="matrix(1.00, 0.00, -0.00, -1.00, 32.0, 133.3)">i</text><text xml:space="preserve" font-family="OpenSans-Light,Open Sans" font-size="28.8" fill="#000000" transform="matrix(1.00, 0.00, -0.00, -1.00, 38.5, 133.3)">n</text><text xml:space="preserve" font-family="OpenSans-Light,Open Sans" font-size="28.8" fill="#000000" transform="matrix(1.00, 0.00, -0.00, -1.00, 55.5, 133.3)"> </text><text xml:space="preserve" font-family="OpenSans-Light,Open Sans" font-size="28.8" fill="#000000" transform="matrix(1.00, 0.00, -0.00, -1.00, 62.9, 133.3)">r</text><text xml:space="preserve" font-family="OpenSans-Light,Open Sans" font-size="28.8" fill="#000000" transform="matrix(1.00, 0.00, -0.00, -1.00, 73.6, 133.3)">e</text><text xml:space="preserve" font-family="OpenSans-Light,Open Sans" font-size="28.8" fill="#000000" transform="matrix(1.00, 0.00, -0.00, -1.00, 89.4, 133.3)">a</text><text xml:space="preserve" font-family="OpenSans-Light,Open Sans" font-size="28.8" fill="#000000" transform="matrix(1.00, 0.00, -0.00, -1.00, 104.6, 133.3)">l</text><text xml:space="preserve" font-family="OpenSans-Light,Open Sans" font-size="28.8" fill="#000000" transform="matrix(1.00, 0.00, -0.00, -1.00, 111.1, 133.3)"> </text><text xml:space="preserve" font-family="OpenSans-Light,Open Sans" font-size="28.8" fill="#000000" transform="matrix(1.00, 0.00, -0.00, -1.00, 118.6, 133.3)">–</text><text xml:space="preserve" font-family="OpenSans-Light,Open Sans" font-size="28.8" fill="#000000" transform="matrix(1.00, 0.00, -0.00, -1.00, 133.0, 133.3)"> </text><text xml:space="preserve" font-family="OpenSans-Light,Open Sans" font-size="28.8" fill="#000000" transform="matrix(1.00, 0.00, -0.00, -1.00, 140.5, 133.3)">t</text><text xml:space="preserve" font-family="OpenSans-Light,Open Sans" font-size="28.8" fill="#000000" transform="matrix(1.00, 0.00, -0.00, -1.00, 150.1, 133.3)">i</text><text xml:space="preserve" font-family="OpenSans-Light,Open Sans" font-size="28.8" fill="#000000" transform="matrix(1.00, 0.00, -0.00, -1.00, 156.7, 133.3)">m</text><text xml:space="preserve" font-family="OpenSans-Light,Open Sans" font-size="28.8" fill="#000000" transform="matrix(1.00, 0.00, -0.00, -1.00, 182.1, 133.3)">e</text><text xml:space="preserve" font-family="OpenSans-Light,Open Sans" font-size="28.8" fill="#000000" transform="matrix(1.00, 0.00, -0.00, -1.00, 197.9, 133.3)">.</text><image xlink:href="../../CF32AD7A-B10D-47EB-9880-4490883621C6/assets/CD8264004D0FC66309D87802CE157F63.png" width="1032.00" height="898.00" transform="matrix(0.41, 0.00, -0.00, -0.41, 295.4, 453.4)"></image><image xlink:href="../../CF32AD7A-B10D-47EB-9880-4490883621C6/assets/5D730E89E5A471E7F0EE94BAF6F1F0EA.png" width="640.00" height="480.00" transform="matrix(0.17, 0.00, -0.00, -0.17, 569.1, 176.3)"></image></g></svg>