<?xml version="1.0" encoding="UTF-8" standalone="no"?><svg xmlns="http://www.w3.org/2000/svg" xmlns:xlink="http://www.w3.org/1999/xlink" clip-rule="evenodd" stroke-miterlimit="10" viewBox="0 0 720 540"><desc>SVG generated by Keynote</desc><defs></defs><g transform="matrix(1.00, 0.00, -0.00, -1.00, 0.0, 540.0)"><path d="M 0.0 540.0 L 720.0 540.0 L 720.0 0.0 L 0.0 0.0 Z M 0.0 540.0 " fill="#FFFFFF"></path><text xml:space="preserve" font-family="OpenSans,Open Sans" font-size="44.0" fill="#3F6797" transform="matrix(1.00, 0.00, -0.00, -1.00, 275.4, 464.7)">S</text><text xml:space="preserve" font-family="OpenSans,Open Sans" font-size="44.0" fill="#3F6797" transform="matrix(1.00, 0.00, -0.00, -1.00, 299.6, 464.7)">o</text><text xml:space="preserve" font-family="OpenSans,Open Sans" font-size="44.0" fill="#3F6797" transform="matrix(1.00, 0.00, -0.00, -1.00, 326.2, 464.7)">l</text><text xml:space="preserve" font-family="OpenSans,Open Sans" font-size="44.0" fill="#3F6797" transform="matrix(1.00, 0.00, -0.00, -1.00, 337.3, 464.7)">u</text><text xml:space="preserve" font-family="OpenSans,Open Sans" font-size="44.0" fill="#3F6797" transform="matrix(1.00, 0.00, -0.00, -1.00, 364.3, 464.7)">t</text><text xml:space="preserve" font-family="OpenSans,Open Sans" font-size="44.0" fill="#3F6797" transform="matrix(1.00, 0.00, -0.00, -1.00, 379.8, 464.7)">i</text><text xml:space="preserve" font-family="OpenSans,Open Sans" font-size="44.0" fill="#3F6797" transform="matrix(1.00, 0.00, -0.00, -1.00, 390.9, 464.7)">o</text><text xml:space="preserve" font-family="OpenSans,Open Sans" font-size="44.0" fill="#3F6797" transform="matrix(1.00, 0.00, -0.00, -1.00, 417.5, 464.7)">n</text><image xlink:href="CD8469EC179F4AA9B2DE503F694B874D.png" width="1548.00" height="1032.00" transform="matrix(0.40, 0.00, -0.00, -0.40, 48.7, 438.9)"></image><g><clipPath id="clip0x7fec149faa10"><path d="M 371.0 118.0 L 486.0 118.0 L 486.0 32.0 L 371.0 32.0 Z M 371.1 118.1 "></path></clipPath><g clip-path="url(#clip0x7fec149faa10)"><image xlink:href="../../CF32AD7A-B10D-47EB-9880-4490883621C6/assets/5D730E89E5A471E7F0EE94BAF6F1F0EA.png" width="640.00" height="480.00" transform="matrix(0.17, 0.00, -0.00, -0.17, 374.6, 124.0)"></image></g></g></g></svg>