<?xml version="1.0" encoding="UTF-8" standalone="no"?><svg xmlns="http://www.w3.org/2000/svg" xmlns:xlink="http://www.w3.org/1999/xlink" clip-rule="evenodd" stroke-miterlimit="10" viewBox="0 0 102 19"><desc>SVG generated by Keynote</desc><defs></defs><g transform="matrix(1.00, 0.00, -0.00, -1.00, 0.0, 19.0)"><text xml:space="preserve" font-family="OpenSans,Open Sans" font-size="20.0" fill="#000000" transform="matrix(1.00, 0.00, -0.00, -1.00, 2.0, 1.9)">A</text><text xml:space="preserve" font-family="OpenSans,Open Sans" font-size="20.0" fill="#000000" transform="matrix(1.00, 0.00, -0.00, -1.00, 14.7, 1.9)">l</text><text xml:space="preserve" font-family="OpenSans,Open Sans" font-size="20.0" fill="#000000" transform="matrix(1.00, 0.00, -0.00, -1.00, 19.8, 1.9)">e</text><text xml:space="preserve" font-family="OpenSans,Open Sans" font-size="20.0" fill="#000000" transform="matrix(1.00, 0.00, -0.00, -1.00, 30.6, 1.9)">x</text><text xml:space="preserve" font-family="OpenSans,Open Sans" font-size="20.0" fill="#000000" transform="matrix(1.00, 0.00, -0.00, -1.00, 41.1, 1.9)"> </text><text xml:space="preserve" font-family="OpenSans,Open Sans" font-size="20.0" fill="#000000" transform="matrix(1.00, 0.00, -0.00, -1.00, 46.2, 1.9)">A</text><text xml:space="preserve" font-family="OpenSans,Open Sans" font-size="20.0" fill="#000000" transform="matrix(1.00, 0.00, -0.00, -1.00, 58.9, 1.9)">m</text><text xml:space="preserve" font-family="OpenSans,Open Sans" font-size="20.0" fill="#000000" transform="matrix(1.00, 0.00, -0.00, -1.00, 77.5, 1.9)">e</text><text xml:space="preserve" font-family="OpenSans,Open Sans" font-size="20.0" fill="#000000" transform="matrix(1.00, 0.00, -0.00, -1.00, 88.7, 1.9)">r</text><text xml:space="preserve" font-family="OpenSans,Open Sans" font-size="20.0" fill="#000000" transform="matrix(1.00, 0.00, -0.00, -1.00, 96.9, 1.9)">i</text></g></svg>