<?xml version="1.0" encoding="UTF-8" standalone="no"?><svg xmlns="http://www.w3.org/2000/svg" xmlns:xlink="http://www.w3.org/1999/xlink" clip-rule="evenodd" stroke-miterlimit="10" viewBox="0 0 240 25"><desc>SVG generated by Keynote</desc><defs></defs><g transform="matrix(1.00, 0.00, -0.00, -1.00, 0.0, 25.0)"><text xml:space="preserve" font-family="OpenSans-Light,Open Sans" font-size="28.8" fill="#000000" transform="matrix(1.00, 0.00, -0.00, -1.00, -0.0, 2.3)">u</text><text xml:space="preserve" font-family="OpenSans-Light,Open Sans" font-size="28.8" fill="#000000" transform="matrix(1.00, 0.00, -0.00, -1.00, 17.0, 2.3)">s</text><text xml:space="preserve" font-family="OpenSans-Light,Open Sans" font-size="28.8" fill="#000000" transform="matrix(1.00, 0.00, -0.00, -1.00, 30.4, 2.3)">e</text><text xml:space="preserve" font-family="OpenSans-Light,Open Sans" font-size="28.8" fill="#000000" transform="matrix(1.00, 0.00, -0.00, -1.00, 46.2, 2.3)">r</text><text xml:space="preserve" font-family="OpenSans-Light,Open Sans" font-size="28.8" fill="#000000" transform="matrix(1.00, 0.00, -0.00, -1.00, 57.4, 2.3)">s</text><text xml:space="preserve" font-family="OpenSans-Light,Open Sans" font-size="28.8" fill="#000000" transform="matrix(1.00, 0.00, -0.00, -1.00, 70.8, 2.3)"> </text><text xml:space="preserve" font-family="OpenSans-Light,Open Sans" font-size="28.8" fill="#000000" transform="matrix(1.00, 0.00, -0.00, -1.00, 78.3, 2.3)">i</text><text xml:space="preserve" font-family="OpenSans-Light,Open Sans" font-size="28.8" fill="#000000" transform="matrix(1.00, 0.00, -0.00, -1.00, 84.8, 2.3)">n</text><text xml:space="preserve" font-family="OpenSans-Light,Open Sans" font-size="28.8" fill="#000000" transform="matrix(1.00, 0.00, -0.00, -1.00, 101.8, 2.3)">t</text><text xml:space="preserve" font-family="OpenSans-Light,Open Sans" font-size="28.8" fill="#000000" transform="matrix(1.00, 0.00, -0.00, -1.00, 111.4, 2.3)">e</text><text xml:space="preserve" font-family="OpenSans-Light,Open Sans" font-size="28.8" fill="#000000" transform="matrix(1.00, 0.00, -0.00, -1.00, 127.2, 2.3)">r</text><text xml:space="preserve" font-family="OpenSans-Light,Open Sans" font-size="28.8" fill="#000000" transform="matrix(1.00, 0.00, -0.00, -1.00, 137.8, 2.3)">a</text><text xml:space="preserve" font-family="OpenSans-Light,Open Sans" font-size="28.8" fill="#000000" transform="matrix(1.00, 0.00, -0.00, -1.00, 153.1, 2.3)">c</text><text xml:space="preserve" font-family="OpenSans-Light,Open Sans" font-size="28.8" fill="#000000" transform="matrix(1.00, 0.00, -0.00, -1.00, 166.8, 2.3)">t</text><text xml:space="preserve" font-family="OpenSans-Light,Open Sans" font-size="28.8" fill="#000000" transform="matrix(1.00, 0.00, -0.00, -1.00, 176.4, 2.3)"> </text><text xml:space="preserve" font-family="OpenSans-Light,Open Sans" font-size="28.8" fill="#000000" transform="matrix(1.00, 0.00, -0.00, -1.00, 183.9, 2.3)">o</text><text xml:space="preserve" font-family="OpenSans-Light,Open Sans" font-size="28.8" fill="#000000" transform="matrix(1.00, 0.00, -0.00, -1.00, 200.8, 2.3)">n</text><text xml:space="preserve" font-family="OpenSans-Light,Open Sans" font-size="28.8" fill="#000000" transform="matrix(1.00, 0.00, -0.00, -1.00, 217.8, 2.3)"> </text><text xml:space="preserve" font-family="OpenSans-Light,Open Sans" font-size="28.8" fill="#000000" transform="matrix(1.00, 0.00, -0.00, -1.00, 225.2, 2.3)">a</text></g></svg>