<?xml version="1.0" encoding="UTF-8" standalone="no"?><svg xmlns="http://www.w3.org/2000/svg" xmlns:xlink="http://www.w3.org/1999/xlink" clip-rule="evenodd" stroke-miterlimit="10" viewBox="0 0 253 26"><desc>SVG generated by Keynote</desc><defs></defs><g transform="matrix(1.00, 0.00, -0.00, -1.00, 0.0, 26.0)"><text xml:space="preserve" font-family="OpenSans-Light,Open Sans" font-size="28.8" fill="#000000" transform="matrix(1.00, 0.00, -0.00, -1.00, -0.0, 2.3)">e</text><text xml:space="preserve" font-family="OpenSans-Light,Open Sans" font-size="28.8" fill="#000000" transform="matrix(1.00, 0.00, -0.00, -1.00, 15.8, 2.3)">n</text><text xml:space="preserve" font-family="OpenSans-Light,Open Sans" font-size="28.8" fill="#000000" transform="matrix(1.00, 0.00, -0.00, -1.00, 32.8, 2.3)">v</text><text xml:space="preserve" font-family="OpenSans-Light,Open Sans" font-size="28.8" fill="#000000" transform="matrix(1.00, 0.00, -0.00, -1.00, 46.0, 2.3)">i</text><text xml:space="preserve" font-family="OpenSans-Light,Open Sans" font-size="28.8" fill="#000000" transform="matrix(1.00, 0.00, -0.00, -1.00, 52.5, 2.3)">r</text><text xml:space="preserve" font-family="OpenSans-Light,Open Sans" font-size="28.8" fill="#000000" transform="matrix(1.00, 0.00, -0.00, -1.00, 63.1, 2.3)">o</text><text xml:space="preserve" font-family="OpenSans-Light,Open Sans" font-size="28.8" fill="#000000" transform="matrix(1.00, 0.00, -0.00, -1.00, 80.0, 2.3)">n</text><text xml:space="preserve" font-family="OpenSans-Light,Open Sans" font-size="28.8" fill="#000000" transform="matrix(1.00, 0.00, -0.00, -1.00, 97.0, 2.3)">m</text><text xml:space="preserve" font-family="OpenSans-Light,Open Sans" font-size="28.8" fill="#000000" transform="matrix(1.00, 0.00, -0.00, -1.00, 122.4, 2.3)">e</text><text xml:space="preserve" font-family="OpenSans-Light,Open Sans" font-size="28.8" fill="#000000" transform="matrix(1.00, 0.00, -0.00, -1.00, 138.2, 2.3)">n</text><text xml:space="preserve" font-family="OpenSans-Light,Open Sans" font-size="28.8" fill="#000000" transform="matrix(1.00, 0.00, -0.00, -1.00, 155.2, 2.3)">t</text><text xml:space="preserve" font-family="OpenSans-Light,Open Sans" font-size="28.8" fill="#000000" transform="matrix(1.00, 0.00, -0.00, -1.00, 164.8, 2.3)"> </text><text xml:space="preserve" font-family="OpenSans-Light,Open Sans" font-size="28.8" fill="#000000" transform="matrix(1.00, 0.00, -0.00, -1.00, 172.3, 2.3)">w</text><text xml:space="preserve" font-family="OpenSans-Light,Open Sans" font-size="28.8" fill="#000000" transform="matrix(1.00, 0.00, -0.00, -1.00, 193.1, 2.3)">h</text><text xml:space="preserve" font-family="OpenSans-Light,Open Sans" font-size="28.8" fill="#000000" transform="matrix(1.00, 0.00, -0.00, -1.00, 210.1, 2.3)">e</text><text xml:space="preserve" font-family="OpenSans-Light,Open Sans" font-size="28.8" fill="#000000" transform="matrix(1.00, 0.00, -0.00, -1.00, 225.9, 2.3)">r</text><text xml:space="preserve" font-family="OpenSans-Light,Open Sans" font-size="28.8" fill="#000000" transform="matrix(1.00, 0.00, -0.00, -1.00, 236.5, 2.3)">e</text></g></svg>