<?xml version="1.0" encoding="UTF-8" standalone="no"?><svg xmlns="http://www.w3.org/2000/svg" xmlns:xlink="http://www.w3.org/1999/xlink" clip-rule="evenodd" stroke-miterlimit="10" viewBox="0 0 722 205"><desc>SVG generated by Keynote</desc><defs></defs><g transform="matrix(1.00, 0.00, -0.00, -1.00, 0.0, 205.0)"><g><clipPath id="clip0x7fec1384dbd0"><path d="M -5.9 -5.5 L 727.9 -5.5 L 727.9 57.5 L -5.9 57.5 Z M -5.9 -5.5 "></path></clipPath><g clip-path="url(#clip0x7fec1384dbd0)"><text xml:space="preserve" font-family="Pacifico-Regular,Pacifico" font-size="24.0" fill="#6390C6" transform="matrix(1.00, 0.00, -0.00, -1.00, 214.1, 15.9)">C</text><text xml:space="preserve" font-family="Pacifico-Regular,Pacifico" font-size="24.0" fill="#6390C6" transform="matrix(1.00, 0.00, -0.00, -1.00, 231.0, 15.9)">o</text><text xml:space="preserve" font-family="Pacifico-Regular,Pacifico" font-size="24.0" fill="#6390C6" transform="matrix(1.00, 0.00, -0.00, -1.00, 241.3, 15.9)">l</text><text xml:space="preserve" font-family="Pacifico-Regular,Pacifico" font-size="24.0" fill="#6390C6" transform="matrix(1.00, 0.00, -0.00, -1.00, 248.0, 15.9)">l</text><text xml:space="preserve" font-family="Pacifico-Regular,Pacifico" font-size="24.0" fill="#6390C6" transform="matrix(1.00, 0.00, -0.00, -1.00, 254.7, 15.9)">a</text><text xml:space="preserve" font-family="Pacifico-Regular,Pacifico" font-size="24.0" fill="#6390C6" transform="matrix(1.00, 0.00, -0.00, -1.00, 265.6, 15.9)">b</text><text xml:space="preserve" font-family="Pacifico-Regular,Pacifico" font-size="24.0" fill="#6390C6" transform="matrix(1.00, 0.00, -0.00, -1.00, 276.8, 15.9)">o</text><text xml:space="preserve" font-family="Pacifico-Regular,Pacifico" font-size="24.0" fill="#6390C6" transform="matrix(1.00, 0.00, -0.00, -1.00, 287.0, 15.9)">r</text><text xml:space="preserve" font-family="Pacifico-Regular,Pacifico" font-size="24.0" fill="#6390C6" transform="matrix(1.00, 0.00, -0.00, -1.00, 297.1, 15.9)">a</text><text xml:space="preserve" font-family="Pacifico-Regular,Pacifico" font-size="24.0" fill="#6390C6" transform="matrix(1.00, 0.00, -0.00, -1.00, 308.0, 15.9)">t</text><text xml:space="preserve" font-family="Pacifico-Regular,Pacifico" font-size="24.0" fill="#6390C6" transform="matrix(1.00, 0.00, -0.00, -1.00, 317.4, 15.9)">i</text><text xml:space="preserve" font-family="Pacifico-Regular,Pacifico" font-size="24.0" fill="#6390C6" transform="matrix(1.00, 0.00, -0.00, -1.00, 323.7, 15.9)">o</text><text xml:space="preserve" font-family="Pacifico-Regular,Pacifico" font-size="24.0" fill="#6390C6" transform="matrix(1.00, 0.00, -0.00, -1.00, 333.9, 15.9)">n</text><text xml:space="preserve" font-family="Pacifico-Regular,Pacifico" font-size="24.0" fill="#6390C6" transform="matrix(1.00, 0.00, -0.00, -1.00, 344.7, 15.9)"> </text><text xml:space="preserve" font-family="Pacifico-Regular,Pacifico" font-size="24.0" fill="#6390C6" transform="matrix(1.00, 0.00, -0.00, -1.00, 351.1, 15.9)">w</text><text xml:space="preserve" font-family="Pacifico-Regular,Pacifico" font-size="24.0" fill="#6390C6" transform="matrix(1.00, 0.00, -0.00, -1.00, 366.4, 15.9)">i</text><text xml:space="preserve" font-family="Pacifico-Regular,Pacifico" font-size="24.0" fill="#6390C6" transform="matrix(1.00, 0.00, -0.00, -1.00, 372.7, 15.9)">t</text><text xml:space="preserve" font-family="Pacifico-Regular,Pacifico" font-size="24.0" fill="#6390C6" transform="matrix(1.00, 0.00, -0.00, -1.00, 382.1, 15.9)">h</text><text xml:space="preserve" font-family="Pacifico-Regular,Pacifico" font-size="24.0" fill="#6390C6" transform="matrix(1.00, 0.00, -0.00, -1.00, 394.1, 15.9)"> </text><text xml:space="preserve" font-family="Pacifico-Regular,Pacifico" font-size="24.0" fill="#6390C6" transform="matrix(1.00, 0.00, -0.00, -1.00, 400.5, 15.9)">y</text><text xml:space="preserve" font-family="Pacifico-Regular,Pacifico" font-size="24.0" fill="#6390C6" transform="matrix(1.00, 0.00, -0.00, -1.00, 411.4, 15.9)">o</text><text xml:space="preserve" font-family="Pacifico-Regular,Pacifico" font-size="24.0" fill="#6390C6" transform="matrix(1.00, 0.00, -0.00, -1.00, 421.6, 15.9)">u</text><text xml:space="preserve" font-family="Pacifico-Regular,Pacifico" font-size="24.0" fill="#6390C6" transform="matrix(1.00, 0.00, -0.00, -1.00, 432.9, 15.9)"> </text><text xml:space="preserve" font-family="Pacifico-Regular,Pacifico" font-size="24.0" fill="#6390C6" transform="matrix(1.00, 0.00, -0.00, -1.00, 439.2, 15.9)">i</text><text xml:space="preserve" font-family="Pacifico-Regular,Pacifico" font-size="24.0" fill="#6390C6" transform="matrix(1.00, 0.00, -0.00, -1.00, 445.5, 15.9)">n</text><text xml:space="preserve" font-family="Pacifico-Regular,Pacifico" font-size="24.0" fill="#6390C6" transform="matrix(1.00, 0.00, -0.00, -1.00, 456.4, 15.9)"> </text><text xml:space="preserve" font-family="Pacifico-Regular,Pacifico" font-size="24.0" fill="#6390C6" transform="matrix(1.00, 0.00, -0.00, -1.00, 462.8, 15.9)">m</text><text xml:space="preserve" font-family="Pacifico-Regular,Pacifico" font-size="24.0" fill="#6390C6" transform="matrix(1.00, 0.00, -0.00, -1.00, 478.1, 15.9)">i</text><text xml:space="preserve" font-family="Pacifico-Regular,Pacifico" font-size="24.0" fill="#6390C6" transform="matrix(1.00, 0.00, -0.00, -1.00, 484.4, 15.9)">n</text><text xml:space="preserve" font-family="Pacifico-Regular,Pacifico" font-size="24.0" fill="#6390C6" transform="matrix(1.00, 0.00, -0.00, -1.00, 495.3, 15.9)">d</text></g></g><g><clipPath id="clip0x7fec138d51d0"><path d="M -30.5 24.9 L 752.5 24.9 L 752.5 235.1 L -30.5 235.1 Z M -30.5 24.9 "></path></clipPath><g clip-path="url(#clip0x7fec138d51d0)"><text xml:space="preserve" font-family="Pacifico-Regular,Pacifico" font-size="80.0" fill="#1D2F43" transform="matrix(1.00, 0.00, -0.00, -1.00, 140.3, 96.3)">C</text><text xml:space="preserve" font-family="Pacifico-Regular,Pacifico" font-size="80.0" fill="#1D2F43" transform="matrix(1.00, 0.00, -0.00, -1.00, 196.6, 96.3)">o</text><text xml:space="preserve" font-family="Pacifico-Regular,Pacifico" font-size="80.0" fill="#1D2F43" transform="matrix(1.00, 0.00, -0.00, -1.00, 230.7, 96.3)">l</text><text xml:space="preserve" font-family="Pacifico-Regular,Pacifico" font-size="80.0" fill="#1D2F43" transform="matrix(1.00, 0.00, -0.00, -1.00, 253.2, 96.3)">l</text><text xml:space="preserve" font-family="Pacifico-Regular,Pacifico" font-size="80.0" fill="#1D2F43" transform="matrix(1.00, 0.00, -0.00, -1.00, 275.6, 96.3)">a</text><text xml:space="preserve" font-family="Pacifico-Regular,Pacifico" font-size="80.0" fill="#1D2F43" transform="matrix(1.00, 0.00, -0.00, -1.00, 311.9, 96.3)">b</text><text xml:space="preserve" font-family="Pacifico-Regular,Pacifico" font-size="80.0" fill="#1D2F43" transform="matrix(1.00, 0.00, -0.00, -1.00, 349.0, 96.3)">o</text><text xml:space="preserve" font-family="Pacifico-Regular,Pacifico" font-size="80.0" fill="#1D2F43" transform="matrix(1.00, 0.00, -0.00, -1.00, 383.1, 96.3)">l</text><text xml:space="preserve" font-family="Pacifico-Regular,Pacifico" font-size="80.0" fill="#1D2F43" transform="matrix(1.00, 0.00, -0.00, -1.00, 405.6, 96.3)">i</text><text xml:space="preserve" font-family="Pacifico-Regular,Pacifico" font-size="80.0" fill="#1D2F43" transform="matrix(1.00, 0.00, -0.00, -1.00, 426.6, 96.3)">c</text><text xml:space="preserve" font-family="Pacifico-Regular,Pacifico" font-size="80.0" fill="#1D2F43" transform="matrix(1.00, 0.00, -0.00, -1.00, 455.3, 96.3)">i</text><text xml:space="preserve" font-family="Pacifico-Regular,Pacifico" font-size="80.0" fill="#1D2F43" transform="matrix(1.00, 0.00, -0.00, -1.00, 476.3, 96.3)">o</text><text xml:space="preserve" font-family="Pacifico-Regular,Pacifico" font-size="80.0" fill="#1D2F43" transform="matrix(1.00, 0.00, -0.00, -1.00, 510.4, 96.3)">u</text><text xml:space="preserve" font-family="Pacifico-Regular,Pacifico" font-size="80.0" fill="#1D2F43" transform="matrix(1.00, 0.00, -0.00, -1.00, 548.0, 96.3)">s</text></g></g></g></svg>