<?xml version="1.0" encoding="UTF-8" standalone="no"?><svg xmlns="http://www.w3.org/2000/svg" xmlns:xlink="http://www.w3.org/1999/xlink" clip-rule="evenodd" stroke-miterlimit="10" viewBox="0 0 210 38"><desc>SVG generated by Keynote</desc><defs></defs><g transform="matrix(1.00, 0.00, -0.00, -1.00, 0.0, 38.0)"><text xml:space="preserve" font-family="OpenSans,Open Sans" font-size="44.0" fill="#3F6797" transform="matrix(1.00, 0.00, -0.00, -1.00, 1.0, 2.7)">W</text><text xml:space="preserve" font-family="OpenSans,Open Sans" font-size="44.0" fill="#3F6797" transform="matrix(1.00, 0.00, -0.00, -1.00, 41.8, 2.7)">h</text><text xml:space="preserve" font-family="OpenSans,Open Sans" font-size="44.0" fill="#3F6797" transform="matrix(1.00, 0.00, -0.00, -1.00, 68.8, 2.7)">a</text><text xml:space="preserve" font-family="OpenSans,Open Sans" font-size="44.0" fill="#3F6797" transform="matrix(1.00, 0.00, -0.00, -1.00, 93.2, 2.7)">t</text><text xml:space="preserve" font-family="OpenSans,Open Sans" font-size="44.0" fill="#3F6797" transform="matrix(1.00, 0.00, -0.00, -1.00, 108.8, 2.7)"> </text><text xml:space="preserve" font-family="OpenSans,Open Sans" font-size="44.0" fill="#3F6797" transform="matrix(1.00, 0.00, -0.00, -1.00, 120.2, 2.7)">i</text><text xml:space="preserve" font-family="OpenSans,Open Sans" font-size="44.0" fill="#3F6797" transform="matrix(1.00, 0.00, -0.00, -1.00, 131.3, 2.7)">s</text><text xml:space="preserve" font-family="OpenSans,Open Sans" font-size="44.0" fill="#3F6797" transform="matrix(1.00, 0.00, -0.00, -1.00, 152.3, 2.7)"> </text><text xml:space="preserve" font-family="OpenSans,Open Sans" font-size="44.0" fill="#3F6797" transform="matrix(1.00, 0.00, -0.00, -1.00, 163.7, 2.7)">i</text><text xml:space="preserve" font-family="OpenSans,Open Sans" font-size="44.0" fill="#3F6797" transform="matrix(1.00, 0.00, -0.00, -1.00, 174.9, 2.7)">t</text><text xml:space="preserve" font-family="OpenSans,Open Sans" font-size="44.0" fill="#3F6797" transform="matrix(1.00, 0.00, -0.00, -1.00, 190.4, 2.7)">?</text></g></svg>