<?xml version="1.0" encoding="UTF-8" standalone="no"?><svg xmlns="http://www.w3.org/2000/svg" xmlns:xlink="http://www.w3.org/1999/xlink" clip-rule="evenodd" stroke-miterlimit="10" viewBox="0 0 254 25"><desc>SVG generated by Keynote</desc><defs></defs><g transform="matrix(1.00, 0.00, -0.00, -1.00, 0.0, 25.0)"><text xml:space="preserve" font-family="OpenSans-Light,Open Sans" font-size="28.8" fill="#000000" transform="matrix(1.00, 0.00, -0.00, -1.00, -0.0, 2.3)">i</text><text xml:space="preserve" font-family="OpenSans-Light,Open Sans" font-size="28.8" fill="#000000" transform="matrix(1.00, 0.00, -0.00, -1.00, 6.5, 2.3)">n</text><text xml:space="preserve" font-family="OpenSans-Light,Open Sans" font-size="28.8" fill="#000000" transform="matrix(1.00, 0.00, -0.00, -1.00, 23.5, 2.3)">t</text><text xml:space="preserve" font-family="OpenSans-Light,Open Sans" font-size="28.8" fill="#000000" transform="matrix(1.00, 0.00, -0.00, -1.00, 33.1, 2.3)">e</text><text xml:space="preserve" font-family="OpenSans-Light,Open Sans" font-size="28.8" fill="#000000" transform="matrix(1.00, 0.00, -0.00, -1.00, 48.9, 2.3)">r</text><text xml:space="preserve" font-family="OpenSans-Light,Open Sans" font-size="28.8" fill="#000000" transform="matrix(1.00, 0.00, -0.00, -1.00, 60.1, 2.3)">n</text><text xml:space="preserve" font-family="OpenSans-Light,Open Sans" font-size="28.8" fill="#000000" transform="matrix(1.00, 0.00, -0.00, -1.00, 77.1, 2.3)">e</text><text xml:space="preserve" font-family="OpenSans-Light,Open Sans" font-size="28.8" fill="#000000" transform="matrix(1.00, 0.00, -0.00, -1.00, 92.9, 2.3)">t</text><text xml:space="preserve" font-family="OpenSans-Light,Open Sans" font-size="28.8" fill="#000000" transform="matrix(1.00, 0.00, -0.00, -1.00, 102.6, 2.3)"> </text><text xml:space="preserve" font-family="OpenSans-Light,Open Sans" font-size="28.8" fill="#000000" transform="matrix(1.00, 0.00, -0.00, -1.00, 110.0, 2.3)">c</text><text xml:space="preserve" font-family="OpenSans-Light,Open Sans" font-size="28.8" fill="#000000" transform="matrix(1.00, 0.00, -0.00, -1.00, 123.7, 2.3)">o</text><text xml:space="preserve" font-family="OpenSans-Light,Open Sans" font-size="28.8" fill="#000000" transform="matrix(1.00, 0.00, -0.00, -1.00, 140.6, 2.3)">n</text><text xml:space="preserve" font-family="OpenSans-Light,Open Sans" font-size="28.8" fill="#000000" transform="matrix(1.00, 0.00, -0.00, -1.00, 157.6, 2.3)">n</text><text xml:space="preserve" font-family="OpenSans-Light,Open Sans" font-size="28.8" fill="#000000" transform="matrix(1.00, 0.00, -0.00, -1.00, 174.6, 2.3)">e</text><text xml:space="preserve" font-family="OpenSans-Light,Open Sans" font-size="28.8" fill="#000000" transform="matrix(1.00, 0.00, -0.00, -1.00, 190.4, 2.3)">c</text><text xml:space="preserve" font-family="OpenSans-Light,Open Sans" font-size="28.8" fill="#000000" transform="matrix(1.00, 0.00, -0.00, -1.00, 204.0, 2.3)">t</text><text xml:space="preserve" font-family="OpenSans-Light,Open Sans" font-size="28.8" fill="#000000" transform="matrix(1.00, 0.00, -0.00, -1.00, 213.7, 2.3)">i</text><text xml:space="preserve" font-family="OpenSans-Light,Open Sans" font-size="28.8" fill="#000000" transform="matrix(1.00, 0.00, -0.00, -1.00, 220.2, 2.3)">o</text><text xml:space="preserve" font-family="OpenSans-Light,Open Sans" font-size="28.8" fill="#000000" transform="matrix(1.00, 0.00, -0.00, -1.00, 237.1, 2.3)">n</text></g></svg>