<?xml version="1.0" encoding="UTF-8" standalone="no"?><svg xmlns="http://www.w3.org/2000/svg" xmlns:xlink="http://www.w3.org/1999/xlink" clip-rule="evenodd" stroke-miterlimit="10" viewBox="0 0 191 26"><desc>SVG generated by Keynote</desc><defs></defs><g transform="matrix(1.00, 0.00, -0.00, -1.00, 0.0, 26.0)"><text xml:space="preserve" font-family="OpenSans-Light,Open Sans" font-size="28.8" fill="#000000" transform="matrix(1.00, 0.00, -0.00, -1.00, 2.0, 2.3)">A</text><text xml:space="preserve" font-family="OpenSans-Light,Open Sans" font-size="28.8" fill="#000000" transform="matrix(1.00, 0.00, -0.00, -1.00, 19.3, 2.3)"> </text><text xml:space="preserve" font-family="OpenSans-Light,Open Sans" font-size="28.8" fill="#000000" transform="matrix(1.00, 0.00, -0.00, -1.00, 26.7, 2.3)">c</text><text xml:space="preserve" font-family="OpenSans-Light,Open Sans" font-size="28.8" fill="#000000" transform="matrix(1.00, 0.00, -0.00, -1.00, 40.4, 2.3)">o</text><text xml:space="preserve" font-family="OpenSans-Light,Open Sans" font-size="28.8" fill="#000000" transform="matrix(1.00, 0.00, -0.00, -1.00, 57.3, 2.3)">l</text><text xml:space="preserve" font-family="OpenSans-Light,Open Sans" font-size="28.8" fill="#000000" transform="matrix(1.00, 0.00, -0.00, -1.00, 63.8, 2.3)">l</text><text xml:space="preserve" font-family="OpenSans-Light,Open Sans" font-size="28.8" fill="#000000" transform="matrix(1.00, 0.00, -0.00, -1.00, 70.3, 2.3)">a</text><text xml:space="preserve" font-family="OpenSans-Light,Open Sans" font-size="28.8" fill="#000000" transform="matrix(1.00, 0.00, -0.00, -1.00, 85.6, 2.3)">b</text><text xml:space="preserve" font-family="OpenSans-Light,Open Sans" font-size="28.8" fill="#000000" transform="matrix(1.00, 0.00, -0.00, -1.00, 102.7, 2.3)">o</text><text xml:space="preserve" font-family="OpenSans-Light,Open Sans" font-size="28.8" fill="#000000" transform="matrix(1.00, 0.00, -0.00, -1.00, 119.6, 2.3)">r</text><text xml:space="preserve" font-family="OpenSans-Light,Open Sans" font-size="28.8" fill="#000000" transform="matrix(1.00, 0.00, -0.00, -1.00, 130.2, 2.3)">a</text><text xml:space="preserve" font-family="OpenSans-Light,Open Sans" font-size="28.8" fill="#000000" transform="matrix(1.00, 0.00, -0.00, -1.00, 145.5, 2.3)">t</text><text xml:space="preserve" font-family="OpenSans-Light,Open Sans" font-size="28.8" fill="#000000" transform="matrix(1.00, 0.00, -0.00, -1.00, 155.1, 2.3)">i</text><text xml:space="preserve" font-family="OpenSans-Light,Open Sans" font-size="28.8" fill="#000000" transform="matrix(1.00, 0.00, -0.00, -1.00, 161.6, 2.3)">v</text><text xml:space="preserve" font-family="OpenSans-Light,Open Sans" font-size="28.8" fill="#000000" transform="matrix(1.00, 0.00, -0.00, -1.00, 174.9, 2.3)">e</text></g></svg>