<?xml version="1.0" encoding="UTF-8" standalone="no"?><svg xmlns="http://www.w3.org/2000/svg" xmlns:xlink="http://www.w3.org/1999/xlink" clip-rule="evenodd" stroke-miterlimit="10" viewBox="0 0 720 540"><desc>SVG generated by Keynote</desc><defs></defs><g transform="matrix(1.00, 0.00, -0.00, -1.00, 0.0, 540.0)"><path d="M 0.0 540.0 L 720.0 540.0 L 720.0 0.0 L 0.0 0.0 Z M 0.0 540.0 " fill="#FFFFFF"></path><text xml:space="preserve" font-family="OpenSans,Open Sans" font-size="34.3" fill="#3F6797" transform="matrix(1.00, 0.00, -0.00, -1.00, 37.7, 430.8)">W</text><text xml:space="preserve" font-family="OpenSans,Open Sans" font-size="34.3" fill="#3F6797" transform="matrix(1.00, 0.00, -0.00, -1.00, 69.5, 430.8)">h</text><text xml:space="preserve" font-family="OpenSans,Open Sans" font-size="34.3" fill="#3F6797" transform="matrix(1.00, 0.00, -0.00, -1.00, 90.5, 430.8)">a</text><text xml:space="preserve" font-family="OpenSans,Open Sans" font-size="34.3" fill="#3F6797" transform="matrix(1.00, 0.00, -0.00, -1.00, 109.6, 430.8)">t</text><text xml:space="preserve" font-family="OpenSans,Open Sans" font-size="34.3" fill="#3F6797" transform="matrix(1.00, 0.00, -0.00, -1.00, 121.7, 430.8)"> </text><text xml:space="preserve" font-family="OpenSans,Open Sans" font-size="34.3" fill="#3F6797" transform="matrix(1.00, 0.00, -0.00, -1.00, 130.6, 430.8)">m</text><text xml:space="preserve" font-family="OpenSans,Open Sans" font-size="34.3" fill="#3F6797" transform="matrix(1.00, 0.00, -0.00, -1.00, 162.6, 430.8)">a</text><text xml:space="preserve" font-family="OpenSans,Open Sans" font-size="34.3" fill="#3F6797" transform="matrix(1.00, 0.00, -0.00, -1.00, 181.7, 430.8)">k</text><text xml:space="preserve" font-family="OpenSans,Open Sans" font-size="34.3" fill="#3F6797" transform="matrix(1.00, 0.00, -0.00, -1.00, 199.0, 430.8)">e</text><text xml:space="preserve" font-family="OpenSans,Open Sans" font-size="34.3" fill="#3F6797" transform="matrix(1.00, 0.00, -0.00, -1.00, 218.3, 430.8)">s</text><text xml:space="preserve" font-family="OpenSans,Open Sans" font-size="34.3" fill="#3F6797" transform="matrix(1.00, 0.00, -0.00, -1.00, 234.6, 430.8)"> </text><text xml:space="preserve" font-family="OpenSans,Open Sans" font-size="34.3" fill="#3F6797" transform="matrix(1.00, 0.00, -0.00, -1.00, 243.5, 430.8)">i</text><text xml:space="preserve" font-family="OpenSans,Open Sans" font-size="34.3" fill="#3F6797" transform="matrix(1.00, 0.00, -0.00, -1.00, 252.2, 430.8)">t</text><text xml:space="preserve" font-family="OpenSans,Open Sans" font-size="34.3" fill="#3F6797" transform="matrix(1.00, 0.00, -0.00, -1.00, 264.3, 430.8)"> </text><text xml:space="preserve" font-family="OpenSans,Open Sans" font-size="34.3" fill="#3F6797" transform="matrix(1.00, 0.00, -0.00, -1.00, 273.2, 430.8)">d</text><text xml:space="preserve" font-family="OpenSans,Open Sans" font-size="34.3" fill="#3F6797" transform="matrix(1.00, 0.00, -0.00, -1.00, 294.3, 430.8)">i</text><text xml:space="preserve" font-family="OpenSans,Open Sans" font-size="34.3" fill="#3F6797" transform="matrix(1.00, 0.00, -0.00, -1.00, 302.9, 430.8)">f</text><text xml:space="preserve" font-family="OpenSans,Open Sans" font-size="34.3" fill="#3F6797" transform="matrix(1.00, 0.00, -0.00, -1.00, 314.6, 430.8)">f</text><text xml:space="preserve" font-family="OpenSans,Open Sans" font-size="34.3" fill="#3F6797" transform="matrix(1.00, 0.00, -0.00, -1.00, 326.2, 430.8)">e</text><text xml:space="preserve" font-family="OpenSans,Open Sans" font-size="34.3" fill="#3F6797" transform="matrix(1.00, 0.00, -0.00, -1.00, 345.4, 430.8)">r</text><text xml:space="preserve" font-family="OpenSans,Open Sans" font-size="34.3" fill="#3F6797" transform="matrix(1.00, 0.00, -0.00, -1.00, 358.8, 430.8)">e</text><text xml:space="preserve" font-family="OpenSans,Open Sans" font-size="34.3" fill="#3F6797" transform="matrix(1.00, 0.00, -0.00, -1.00, 378.0, 430.8)">n</text><text xml:space="preserve" font-family="OpenSans,Open Sans" font-size="34.3" fill="#3F6797" transform="matrix(1.00, 0.00, -0.00, -1.00, 399.1, 430.8)">t</text><text xml:space="preserve" font-family="OpenSans-Light,Open Sans" font-size="32.0" fill="#000000" transform="matrix(1.00, 0.00, -0.00, -1.00, 43.9, 342.2)">C</text><text xml:space="preserve" font-family="OpenSans-Light,Open Sans" font-size="32.0" fill="#000000" transform="matrix(1.00, 0.00, -0.00, -1.00, 63.7, 342.2)">o</text><text xml:space="preserve" font-family="OpenSans-Light,Open Sans" font-size="32.0" fill="#000000" transform="matrix(1.00, 0.00, -0.00, -1.00, 82.5, 342.2)">l</text><text xml:space="preserve" font-family="OpenSans-Light,Open Sans" font-size="32.0" fill="#000000" transform="matrix(1.00, 0.00, -0.00, -1.00, 89.7, 342.2)">l</text><text xml:space="preserve" font-family="OpenSans-Light,Open Sans" font-size="32.0" fill="#000000" transform="matrix(1.00, 0.00, -0.00, -1.00, 97.0, 342.2)">a</text><text xml:space="preserve" font-family="OpenSans-Light,Open Sans" font-size="32.0" fill="#000000" transform="matrix(1.00, 0.00, -0.00, -1.00, 113.9, 342.2)">b</text><text xml:space="preserve" font-family="OpenSans-Light,Open Sans" font-size="32.0" fill="#000000" transform="matrix(1.00, 0.00, -0.00, -1.00, 133.0, 342.2)">o</text><text xml:space="preserve" font-family="OpenSans-Light,Open Sans" font-size="32.0" fill="#000000" transform="matrix(1.00, 0.00, -0.00, -1.00, 151.7, 342.2)">l</text><text xml:space="preserve" font-family="OpenSans-Light,Open Sans" font-size="32.0" fill="#000000" transform="matrix(1.00, 0.00, -0.00, -1.00, 158.9, 342.2)">i</text><text xml:space="preserve" font-family="OpenSans-Light,Open Sans" font-size="32.0" fill="#000000" transform="matrix(1.00, 0.00, -0.00, -1.00, 166.2, 342.2)">c</text><text xml:space="preserve" font-family="OpenSans-Light,Open Sans" font-size="32.0" fill="#000000" transform="matrix(1.00, 0.00, -0.00, -1.00, 181.4, 342.2)">o</text><text xml:space="preserve" font-family="OpenSans-Light,Open Sans" font-size="32.0" fill="#000000" transform="matrix(1.00, 0.00, -0.00, -1.00, 200.1, 342.2)">u</text><text xml:space="preserve" font-family="OpenSans-Light,Open Sans" font-size="32.0" fill="#000000" transform="matrix(1.00, 0.00, -0.00, -1.00, 219.0, 342.2)">s</text><text xml:space="preserve" font-family="OpenSans-Light,Open Sans" font-size="32.0" fill="#000000" transform="matrix(1.00, 0.00, -0.00, -1.00, 233.9, 342.2)"> </text><text xml:space="preserve" font-family="OpenSans-Light,Open Sans" font-size="32.0" fill="#000000" transform="matrix(1.00, 0.00, -0.00, -1.00, 242.2, 342.2)">t</text><text xml:space="preserve" font-family="OpenSans-Light,Open Sans" font-size="32.0" fill="#000000" transform="matrix(1.00, 0.00, -0.00, -1.00, 252.9, 342.2)">a</text><text xml:space="preserve" font-family="OpenSans-Light,Open Sans" font-size="32.0" fill="#000000" transform="matrix(1.00, 0.00, -0.00, -1.00, 269.9, 342.2)">k</text><text xml:space="preserve" font-family="OpenSans-Light,Open Sans" font-size="32.0" fill="#000000" transform="matrix(1.00, 0.00, -0.00, -1.00, 284.7, 342.2)">e</text><text xml:space="preserve" font-family="OpenSans-Light,Open Sans" font-size="32.0" fill="#000000" transform="matrix(1.00, 0.00, -0.00, -1.00, 302.3, 342.2)">s</text><text xml:space="preserve" font-family="OpenSans-Light,Open Sans" font-size="32.0" fill="#000000" transform="matrix(1.00, 0.00, -0.00, -1.00, 317.2, 342.2)"> </text><text xml:space="preserve" font-family="OpenSans-Light,Open Sans" font-size="32.0" fill="#000000" transform="matrix(1.00, 0.00, -0.00, -1.00, 325.5, 342.2)">t</text><text xml:space="preserve" font-family="OpenSans-Light,Open Sans" font-size="32.0" fill="#000000" transform="matrix(1.00, 0.00, -0.00, -1.00, 336.2, 342.2)">h</text><text xml:space="preserve" font-family="OpenSans-Light,Open Sans" font-size="32.0" fill="#000000" transform="matrix(1.00, 0.00, -0.00, -1.00, 355.1, 342.2)">e</text><text xml:space="preserve" font-family="OpenSans-Light,Open Sans" font-size="32.0" fill="#000000" transform="matrix(1.00, 0.00, -0.00, -1.00, 372.6, 342.2)"> </text><text xml:space="preserve" font-family="OpenSans-Light,Open Sans" font-size="32.0" fill="#000000" transform="matrix(1.00, 0.00, -0.00, -1.00, 43.9, 299.2)">i</text><text xml:space="preserve" font-family="OpenSans-Light,Open Sans" font-size="32.0" fill="#000000" transform="matrix(1.00, 0.00, -0.00, -1.00, 51.1, 299.2)">d</text><text xml:space="preserve" font-family="OpenSans-Light,Open Sans" font-size="32.0" fill="#000000" transform="matrix(1.00, 0.00, -0.00, -1.00, 70.1, 299.2)">e</text><text xml:space="preserve" font-family="OpenSans-Light,Open Sans" font-size="32.0" fill="#000000" transform="matrix(1.00, 0.00, -0.00, -1.00, 87.7, 299.2)">a</text><text xml:space="preserve" font-family="OpenSans-Light,Open Sans" font-size="32.0" fill="#000000" transform="matrix(1.00, 0.00, -0.00, -1.00, 104.6, 299.2)"> </text><text xml:space="preserve" font-family="OpenSans-Light,Open Sans" font-size="32.0" fill="#000000" transform="matrix(1.00, 0.00, -0.00, -1.00, 113.0, 299.2)">o</text><text xml:space="preserve" font-family="OpenSans-Light,Open Sans" font-size="32.0" fill="#000000" transform="matrix(1.00, 0.00, -0.00, -1.00, 131.7, 299.2)">f</text><text xml:space="preserve" font-family="OpenSans-Light,Open Sans" font-size="32.0" fill="#000000" transform="matrix(1.00, 0.00, -0.00, -1.00, 141.3, 299.2)"> </text><text xml:space="preserve" font-family="OpenSans-Light,Open Sans" font-size="32.0" fill="#000000" transform="matrix(1.00, 0.00, -0.00, -1.00, 149.6, 299.2)">a</text><text xml:space="preserve" font-family="OpenSans-Light,Open Sans" font-size="32.0" fill="#000000" transform="matrix(1.00, 0.00, -0.00, -1.00, 166.5, 299.2)"> </text><text xml:space="preserve" font-family="OpenSans-Light,Open Sans" font-size="32.0" fill="#000000" transform="matrix(1.00, 0.00, -0.00, -1.00, 174.8, 299.2)">p</text><text xml:space="preserve" font-family="OpenSans-Light,Open Sans" font-size="32.0" fill="#000000" transform="matrix(1.00, 0.00, -0.00, -1.00, 193.9, 299.2)">h</text><text xml:space="preserve" font-family="OpenSans-Light,Open Sans" font-size="32.0" fill="#000000" transform="matrix(1.00, 0.00, -0.00, -1.00, 212.8, 299.2)">y</text><text xml:space="preserve" font-family="OpenSans-Light,Open Sans" font-size="32.0" fill="#000000" transform="matrix(1.00, 0.00, -0.00, -1.00, 227.5, 299.2)">s</text><text xml:space="preserve" font-family="OpenSans-Light,Open Sans" font-size="32.0" fill="#000000" transform="matrix(1.00, 0.00, -0.00, -1.00, 242.4, 299.2)">i</text><text xml:space="preserve" font-family="OpenSans-Light,Open Sans" font-size="32.0" fill="#000000" transform="matrix(1.00, 0.00, -0.00, -1.00, 249.6, 299.2)">c</text><text xml:space="preserve" font-family="OpenSans-Light,Open Sans" font-size="32.0" fill="#000000" transform="matrix(1.00, 0.00, -0.00, -1.00, 264.8, 299.2)">a</text><text xml:space="preserve" font-family="OpenSans-Light,Open Sans" font-size="32.0" fill="#000000" transform="matrix(1.00, 0.00, -0.00, -1.00, 281.7, 299.2)">l</text><text xml:space="preserve" font-family="OpenSans-Light,Open Sans" font-size="32.0" fill="#000000" transform="matrix(1.00, 0.00, -0.00, -1.00, 289.0, 299.2)"> </text><text xml:space="preserve" font-family="OpenSans-Light,Open Sans" font-size="32.0" fill="#000000" transform="matrix(1.00, 0.00, -0.00, -1.00, 43.9, 256.2)">w</text><text xml:space="preserve" font-family="OpenSans-Light,Open Sans" font-size="32.0" fill="#000000" transform="matrix(1.00, 0.00, -0.00, -1.00, 67.0, 256.2)">h</text><text xml:space="preserve" font-family="OpenSans-Light,Open Sans" font-size="32.0" fill="#000000" transform="matrix(1.00, 0.00, -0.00, -1.00, 85.9, 256.2)">i</text><text xml:space="preserve" font-family="OpenSans-Light,Open Sans" font-size="32.0" fill="#000000" transform="matrix(1.00, 0.00, -0.00, -1.00, 93.1, 256.2)">t</text><text xml:space="preserve" font-family="OpenSans-Light,Open Sans" font-size="32.0" fill="#000000" transform="matrix(1.00, 0.00, -0.00, -1.00, 103.8, 256.2)">e</text><text xml:space="preserve" font-family="OpenSans-Light,Open Sans" font-size="32.0" fill="#000000" transform="matrix(1.00, 0.00, -0.00, -1.00, 121.4, 256.2)">b</text><text xml:space="preserve" font-family="OpenSans-Light,Open Sans" font-size="32.0" fill="#000000" transform="matrix(1.00, 0.00, -0.00, -1.00, 140.4, 256.2)">o</text><text xml:space="preserve" font-family="OpenSans-Light,Open Sans" font-size="32.0" fill="#000000" transform="matrix(1.00, 0.00, -0.00, -1.00, 159.2, 256.2)">a</text><text xml:space="preserve" font-family="OpenSans-Light,Open Sans" font-size="32.0" fill="#000000" transform="matrix(1.00, 0.00, -0.00, -1.00, 176.1, 256.2)">r</text><text xml:space="preserve" font-family="OpenSans-Light,Open Sans" font-size="32.0" fill="#000000" transform="matrix(1.00, 0.00, -0.00, -1.00, 187.9, 256.2)">d</text><text xml:space="preserve" font-family="OpenSans-Light,Open Sans" font-size="32.0" fill="#000000" transform="matrix(1.00, 0.00, -0.00, -1.00, 207.0, 256.2)">,</text><text xml:space="preserve" font-family="OpenSans-Light,Open Sans" font-size="32.0" fill="#000000" transform="matrix(1.00, 0.00, -0.00, -1.00, 213.9, 256.2)"> </text><text xml:space="preserve" font-family="OpenSans-Light,Open Sans" font-size="32.0" fill="#000000" transform="matrix(1.00, 0.00, -0.00, -1.00, 222.2, 256.2)">t</text><text xml:space="preserve" font-family="OpenSans-Light,Open Sans" font-size="32.0" fill="#000000" transform="matrix(1.00, 0.00, -0.00, -1.00, 232.9, 256.2)">o</text><text xml:space="preserve" font-family="OpenSans-Light,Open Sans" font-size="32.0" fill="#000000" transform="matrix(1.00, 0.00, -0.00, -1.00, 251.6, 256.2)"> </text><text xml:space="preserve" font-family="OpenSans-Light,Open Sans" font-size="32.0" fill="#000000" transform="matrix(1.00, 0.00, -0.00, -1.00, 259.9, 256.2)">t</text><text xml:space="preserve" font-family="OpenSans-Light,Open Sans" font-size="32.0" fill="#000000" transform="matrix(1.00, 0.00, -0.00, -1.00, 270.7, 256.2)">h</text><text xml:space="preserve" font-family="OpenSans-Light,Open Sans" font-size="32.0" fill="#000000" transform="matrix(1.00, 0.00, -0.00, -1.00, 289.5, 256.2)">e</text><text xml:space="preserve" font-family="OpenSans-Light,Open Sans" font-size="32.0" fill="#000000" transform="matrix(1.00, 0.00, -0.00, -1.00, 307.1, 256.2)"> </text><text xml:space="preserve" font-family="OpenSans-Light,Open Sans" font-size="32.0" fill="#000000" transform="matrix(1.00, 0.00, -0.00, -1.00, 315.4, 256.2)">d</text><text xml:space="preserve" font-family="OpenSans-Light,Open Sans" font-size="32.0" fill="#000000" transform="matrix(1.00, 0.00, -0.00, -1.00, 334.4, 256.2)">i</text><text xml:space="preserve" font-family="OpenSans-Light,Open Sans" font-size="32.0" fill="#000000" transform="matrix(1.00, 0.00, -0.00, -1.00, 341.7, 256.2)">g</text><text xml:space="preserve" font-family="OpenSans-Light,Open Sans" font-size="32.0" fill="#000000" transform="matrix(1.00, 0.00, -0.00, -1.00, 358.4, 256.2)">i</text><text xml:space="preserve" font-family="OpenSans-Light,Open Sans" font-size="32.0" fill="#000000" transform="matrix(1.00, 0.00, -0.00, -1.00, 365.6, 256.2)">t</text><text xml:space="preserve" font-family="OpenSans-Light,Open Sans" font-size="32.0" fill="#000000" transform="matrix(1.00, 0.00, -0.00, -1.00, 376.4, 256.2)">a</text><text xml:space="preserve" font-family="OpenSans-Light,Open Sans" font-size="32.0" fill="#000000" transform="matrix(1.00, 0.00, -0.00, -1.00, 393.3, 256.2)">l</text><text xml:space="preserve" font-family="OpenSans-Light,Open Sans" font-size="32.0" fill="#000000" transform="matrix(1.00, 0.00, -0.00, -1.00, 400.6, 256.2)"> </text><text xml:space="preserve" font-family="OpenSans-Light,Open Sans" font-size="32.0" fill="#000000" transform="matrix(1.00, 0.00, -0.00, -1.00, 43.9, 213.2)">r</text><text xml:space="preserve" font-family="OpenSans-Light,Open Sans" font-size="32.0" fill="#000000" transform="matrix(1.00, 0.00, -0.00, -1.00, 55.7, 213.2)">e</text><text xml:space="preserve" font-family="OpenSans-Light,Open Sans" font-size="32.0" fill="#000000" transform="matrix(1.00, 0.00, -0.00, -1.00, 73.2, 213.2)">a</text><text xml:space="preserve" font-family="OpenSans-Light,Open Sans" font-size="32.0" fill="#000000" transform="matrix(1.00, 0.00, -0.00, -1.00, 90.2, 213.2)">l</text><text xml:space="preserve" font-family="OpenSans-Light,Open Sans" font-size="32.0" fill="#000000" transform="matrix(1.00, 0.00, -0.00, -1.00, 97.4, 213.2)">m</text><text xml:space="preserve" font-family="OpenSans-Light,Open Sans" font-size="32.0" fill="#000000" transform="matrix(1.00, 0.00, -0.00, -1.00, 125.7, 213.2)"> </text><text xml:space="preserve" font-family="OpenSans-Light,Open Sans" font-size="32.0" fill="#000000" transform="matrix(1.00, 0.00, -0.00, -1.00, 134.0, 213.2)">a</text><text xml:space="preserve" font-family="OpenSans-Light,Open Sans" font-size="32.0" fill="#000000" transform="matrix(1.00, 0.00, -0.00, -1.00, 150.9, 213.2)">l</text><text xml:space="preserve" font-family="OpenSans-Light,Open Sans" font-size="32.0" fill="#000000" transform="matrix(1.00, 0.00, -0.00, -1.00, 158.1, 213.2)">l</text><text xml:space="preserve" font-family="OpenSans-Light,Open Sans" font-size="32.0" fill="#000000" transform="matrix(1.00, 0.00, -0.00, -1.00, 165.4, 213.2)">o</text><text xml:space="preserve" font-family="OpenSans-Light,Open Sans" font-size="32.0" fill="#000000" transform="matrix(1.00, 0.00, -0.00, -1.00, 183.5, 213.2)">w</text><text xml:space="preserve" font-family="OpenSans-Light,Open Sans" font-size="32.0" fill="#000000" transform="matrix(1.00, 0.00, -0.00, -1.00, 206.6, 213.2)">i</text><text xml:space="preserve" font-family="OpenSans-Light,Open Sans" font-size="32.0" fill="#000000" transform="matrix(1.00, 0.00, -0.00, -1.00, 213.9, 213.2)">n</text><text xml:space="preserve" font-family="OpenSans-Light,Open Sans" font-size="32.0" fill="#000000" transform="matrix(1.00, 0.00, -0.00, -1.00, 232.7, 213.2)">g</text><text xml:space="preserve" font-family="OpenSans-Light,Open Sans" font-size="32.0" fill="#000000" transform="matrix(1.00, 0.00, -0.00, -1.00, 249.5, 213.2)"> </text><text xml:space="preserve" font-family="OpenSans-Light,Open Sans" font-size="32.0" fill="#000000" transform="matrix(1.00, 0.00, -0.00, -1.00, 257.8, 213.2)">u</text><text xml:space="preserve" font-family="OpenSans-Light,Open Sans" font-size="32.0" fill="#000000" transform="matrix(1.00, 0.00, -0.00, -1.00, 276.6, 213.2)">s</text><text xml:space="preserve" font-family="OpenSans-Light,Open Sans" font-size="32.0" fill="#000000" transform="matrix(1.00, 0.00, -0.00, -1.00, 291.5, 213.2)">e</text><text xml:space="preserve" font-family="OpenSans-Light,Open Sans" font-size="32.0" fill="#000000" transform="matrix(1.00, 0.00, -0.00, -1.00, 309.1, 213.2)">r</text><text xml:space="preserve" font-family="OpenSans-Light,Open Sans" font-size="32.0" fill="#000000" transform="matrix(1.00, 0.00, -0.00, -1.00, 321.6, 213.2)">s</text><text xml:space="preserve" font-family="OpenSans-Light,Open Sans" font-size="32.0" fill="#000000" transform="matrix(1.00, 0.00, -0.00, -1.00, 336.5, 213.2)"> </text><text xml:space="preserve" font-family="OpenSans-Light,Open Sans" font-size="32.0" fill="#000000" transform="matrix(1.00, 0.00, -0.00, -1.00, 344.8, 213.2)">t</text><text xml:space="preserve" font-family="OpenSans-Light,Open Sans" font-size="32.0" fill="#000000" transform="matrix(1.00, 0.00, -0.00, -1.00, 355.5, 213.2)">o</text><text xml:space="preserve" font-family="OpenSans-Light,Open Sans" font-size="32.0" fill="#000000" transform="matrix(1.00, 0.00, -0.00, -1.00, 374.2, 213.2)"> </text><text xml:space="preserve" font-family="OpenSans-Light,Open Sans" font-size="32.0" fill="#000000" transform="matrix(1.00, 0.00, -0.00, -1.00, 43.9, 170.2)">i</text><text xml:space="preserve" font-family="OpenSans-Light,Open Sans" font-size="32.0" fill="#000000" transform="matrix(1.00, 0.00, -0.00, -1.00, 51.1, 170.2)">n</text><text xml:space="preserve" font-family="OpenSans-Light,Open Sans" font-size="32.0" fill="#000000" transform="matrix(1.00, 0.00, -0.00, -1.00, 70.0, 170.2)">t</text><text xml:space="preserve" font-family="OpenSans-Light,Open Sans" font-size="32.0" fill="#000000" transform="matrix(1.00, 0.00, -0.00, -1.00, 80.7, 170.2)">e</text><text xml:space="preserve" font-family="OpenSans-Light,Open Sans" font-size="32.0" fill="#000000" transform="matrix(1.00, 0.00, -0.00, -1.00, 98.2, 170.2)">r</text><text xml:space="preserve" font-family="OpenSans-Light,Open Sans" font-size="32.0" fill="#000000" transform="matrix(1.00, 0.00, -0.00, -1.00, 110.0, 170.2)">a</text><text xml:space="preserve" font-family="OpenSans-Light,Open Sans" font-size="32.0" fill="#000000" transform="matrix(1.00, 0.00, -0.00, -1.00, 127.0, 170.2)">c</text><text xml:space="preserve" font-family="OpenSans-Light,Open Sans" font-size="32.0" fill="#000000" transform="matrix(1.00, 0.00, -0.00, -1.00, 142.2, 170.2)">t</text><text xml:space="preserve" font-family="OpenSans-Light,Open Sans" font-size="32.0" fill="#000000" transform="matrix(1.00, 0.00, -0.00, -1.00, 152.9, 170.2)"> </text><text xml:space="preserve" font-family="OpenSans-Light,Open Sans" font-size="32.0" fill="#000000" transform="matrix(1.00, 0.00, -0.00, -1.00, 161.2, 170.2)">o</text><text xml:space="preserve" font-family="OpenSans-Light,Open Sans" font-size="32.0" fill="#000000" transform="matrix(1.00, 0.00, -0.00, -1.00, 180.0, 170.2)">n</text><text xml:space="preserve" font-family="OpenSans-Light,Open Sans" font-size="32.0" fill="#000000" transform="matrix(1.00, 0.00, -0.00, -1.00, 198.8, 170.2)"> </text><text xml:space="preserve" font-family="OpenSans-Light,Open Sans" font-size="32.0" fill="#000000" transform="matrix(1.00, 0.00, -0.00, -1.00, 207.1, 170.2)">a</text><text xml:space="preserve" font-family="OpenSans-Light,Open Sans" font-size="32.0" fill="#000000" transform="matrix(1.00, 0.00, -0.00, -1.00, 224.1, 170.2)"> </text><text xml:space="preserve" font-family="OpenSans-Light,Open Sans" font-size="32.0" fill="#000000" transform="matrix(1.00, 0.00, -0.00, -1.00, 232.4, 170.2)">v</text><text xml:space="preserve" font-family="OpenSans-Light,Open Sans" font-size="32.0" fill="#000000" transform="matrix(1.00, 0.00, -0.00, -1.00, 247.1, 170.2)">i</text><text xml:space="preserve" font-family="OpenSans-Light,Open Sans" font-size="32.0" fill="#000000" transform="matrix(1.00, 0.00, -0.00, -1.00, 254.3, 170.2)">r</text><text xml:space="preserve" font-family="OpenSans-Light,Open Sans" font-size="32.0" fill="#000000" transform="matrix(1.00, 0.00, -0.00, -1.00, 266.8, 170.2)">t</text><text xml:space="preserve" font-family="OpenSans-Light,Open Sans" font-size="32.0" fill="#000000" transform="matrix(1.00, 0.00, -0.00, -1.00, 277.5, 170.2)">u</text><text xml:space="preserve" font-family="OpenSans-Light,Open Sans" font-size="32.0" fill="#000000" transform="matrix(1.00, 0.00, -0.00, -1.00, 296.4, 170.2)">a</text><text xml:space="preserve" font-family="OpenSans-Light,Open Sans" font-size="32.0" fill="#000000" transform="matrix(1.00, 0.00, -0.00, -1.00, 313.3, 170.2)">l</text><text xml:space="preserve" font-family="OpenSans-Light,Open Sans" font-size="32.0" fill="#000000" transform="matrix(1.00, 0.00, -0.00, -1.00, 320.6, 170.2)"> </text><text xml:space="preserve" font-family="OpenSans-Light,Open Sans" font-size="32.0" fill="#000000" transform="matrix(1.00, 0.00, -0.00, -1.00, 43.9, 127.2)">s</text><text xml:space="preserve" font-family="OpenSans-Light,Open Sans" font-size="32.0" fill="#000000" transform="matrix(1.00, 0.00, -0.00, -1.00, 58.8, 127.2)">p</text><text xml:space="preserve" font-family="OpenSans-Light,Open Sans" font-size="32.0" fill="#000000" transform="matrix(1.00, 0.00, -0.00, -1.00, 77.8, 127.2)">a</text><text xml:space="preserve" font-family="OpenSans-Light,Open Sans" font-size="32.0" fill="#000000" transform="matrix(1.00, 0.00, -0.00, -1.00, 94.7, 127.2)">c</text><text xml:space="preserve" font-family="OpenSans-Light,Open Sans" font-size="32.0" fill="#000000" transform="matrix(1.00, 0.00, -0.00, -1.00, 109.9, 127.2)">e</text><text xml:space="preserve" font-family="OpenSans-Light,Open Sans" font-size="32.0" fill="#000000" transform="matrix(1.00, 0.00, -0.00, -1.00, 127.5, 127.2)">.</text><image xlink:href="../../A3A3165D-F7B9-4962-96FB-CF7ADA5F6664/assets/228CED46FD3C32EB6A52ED8052FD3452.png" width="632.00" height="986.00" transform="matrix(0.37, 0.00, -0.00, -0.37, 438.2, 423.9)"></image></g></svg>